P3
30 30
255
0 0 0
0 0 0
0 0 0
0 0 0
0 0 0
0 0 0
0 0 0
0 0 0
0 0 0
0 0 0
0 0 0
0 0 0
0 0 0
0 0 0
0 0 0
0 0 0
0 0 0
0 0 0
0 0 0
0 0 0
0 0 0
0 0 0
0 0 0
0 0 0
0 0 0
0 0 0
0 0 0
0 0 0
0 0 0
0 0 0
0 0 0
0 0 0
0 0 0
0 0 0
0 0 0
0 0 0
0 0 0
0 0 0
0 0 0
0 0 0
0 0 0
0 0 0
0 0 0
0 0 0
0 0 0
0 0 0
0 0 0
0 0 0
0 0 0
0 0 0
0 0 0
0 0 0
0 0 0
0 0 0
0 0 0
0 0 0
0 0 0
0 0 0
0 0 0
0 0 0
0 0 0
0 0 0
0 0 0
0 0 0
0 0 0
0 0 0
0 0 0
0 0 0
0 0 0
0 0 0
0 0 0
0 0 0
0 0 0
0 0 0
0 0 0
0 0 0
0 0 0
0 0 0
0 0 0
0 0 0
0 0 0
0 0 0
0 0 0
0 0 0
0 0 0
0 0 0
0 0 0
0 0 0
0 0 0
0 0 0
0 0 0
0 0 0
0 0 0
0 0 0
0 0 0
0 0 0
0 0 0
0 0 0
0 0 0
0 0 0
0 0 0
0 0 0
0 0 0
0 0 0
0 0 0
0 0 0
0 0 0
0 0 0
0 0 0
0 0 0
0 0 0
0 0 0
0 0 0
0 0 0
0 0 0
0 0 0
0 0 0
0 0 0
0 0 0
0 0 0
0 0 0
0 0 0
0 0 0
0 0 0
0 0 0
0 0 0
0 0 0
0 0 0
0 0 0
0 0 0
0 0 0
0 0 0
0 0 0
1 1 1
1 1 1
1 1 1
1 1 1
1 1 1
0 0 0
0 0 0
0 0 0
0 0 0
0 0 0
0 0 0
0 0 0
0 0 0
0 0 0
0 0 0
0 0 0
0 0 0
0 0 0
0 0 0
0 0 0
0 0 0
0 0 0
0 0 0
0 0 0
0 0 0
0 0 0
0 0 0
1 1 1
1 1 1
2 2 2
2 2 2
2 2 2
2 2 2
2 2 2
2 2 2
2 2 2
1 1 1
1 1 1
1 1 1
0 0 0
0 0 0
0 0 0
0 0 0
0 0 0
0 0 0
0 0 0
0 0 0
0 0 0
0 0 0
0 0 0
0 0 0
0 0 0
0 0 0
0 0 0
0 0 0
0 0 0
1 1 1
2 2 2
3 3 3
4 4 4
4 4 4
4 4 4
4 4 4
4 4 4
4 4 4
4 4 4
3 3 3
2 2 2
2 2 2
1 1 1
0 0 0
0 0 0
0 0 0
0 0 0
0 0 0
0 0 0
0 0 0
0 0 0
0 0 0
0 0 0
0 0 0
0 0 0
0 0 0
0 0 0
1 1 1
1 1 1
2 2 2
4 4 4
6 6 6
7 7 7
8 8 8
8 8 8
8 8 8
8 8 8
8 8 8
8 8 8
7 7 7
5 5 5
3 3 3
2 2 2
1 1 1
0 0 0
0 0 0
0 0 0
0 0 0
0 0 0
0 0 0
0 0 0
0 0 0
0 0 0
0 0 0
0 0 0
0 0 0
1 1 1
2 2 2
3 3 3
5 5 5
8 8 8
10 10 10
14 14 14
18 18 18
17 17 17
15 15 15
14 14 14
13 13 13
14 14 14
11 11 11
9 9 9
6 6 6
4 4 4
2 2 2
1 1 1
0 0 0
0 0 0
0 0 0
0 0 0
0 0 0
0 0 0
0 0 0
0 0 0
0 0 0
0 0 0
1 1 1
2 2 2
3 3 3
6 6 6
9 9 9
12 12 12
17 17 17
24 24 24
30 30 30
31 31 31
27 27 27
24 24 24
23 23 23
21 21 21
18 18 18
15 15 15
10 10 10
6 6 6
4 4 4
2 2 2
1 1 1
0 0 0
0 0 0
0 0 0
0 0 0
0 0 0
0 0 0
0 0 0
0 0 0
0 0 0
1 1 1
3 3 3
6 6 6
10 10 10
14 14 14
18 18 18
27 27 27
38 38 38
46 46 46
48 48 48
43 43 43
36 36 36
35 35 35
32 32 32
25 25 25
22 22 22
15 15 15
9 9 9
5 5 5
3 3 3
1 1 1
0 0 0
0 0 0
0 0 0
0 0 0
0 0 0
0 0 0
0 0 0
0 0 0
1 1 1
2 2 2
4 4 4
8 8 8
14 14 14
20 20 20
29 29 29
41 41 41
53 53 53
62 62 62
60 60 60
55 55 55
52 52 52
47 47 47
44 44 44
36 36 36
30 30 30
20 20 20
12 12 12
8 8 8
4 4 4
2 2 2
1 1 1
0 0 0
0 0 0
0 0 0
0 0 0
0 0 0
0 0 0
0 0 0
1 1 1
3 3 3
6 6 6
11 11 11
19 19 19
29 29 29
42 42 42
53 53 53
62 62 62
74 74 74
73 73 73
70 70 70
68 68 68
65 65 65
54 54 54
49 49 49
40 40 40
27 27 27
18 18 18
11 11 11
6 6 6
3 3 3
1 1 1
0 0 0
0 0 0
0 0 0
0 0 0
0 0 0
0 0 0
0 0 0
1 1 1
3 3 3
7 7 7
14 14 14
24 24 24
39 39 39
55 55 55
66 66 66
78 78 78
90 90 90
90 90 90
97 97 97
81 81 81
74 74 74
64 64 64
59 59 59
47 47 47
33 33 33
21 21 21
13 13 13
7 7 7
4 4 4
2 2 2
0 0 0
0 0 0
0 0 0
0 0 0
0 0 0
0 0 0
1 1 1
2 2 2
4 4 4
8 8 8
16 16 16
29 29 29
44 44 44
65 65 65
83 83 83
95 95 95
114 114 114
122 122 122
113 113 113
99 99 99
87 87 87
73 73 73
64 64 64
51 51 51
35 35 35
23 23 23
13 13 13
8 8 8
4 4 4
2 2 2
0 0 0
0 0 0
0 0 0
0 0 0
0 0 0
0 0 0
1 1 1
2 2 2
4 4 4
9 9 9
17 17 17
31 31 31
48 48 48
70 70 70
98 98 98
110 110 110
135 135 135
141 141 141
128 128 128
119 119 119
104 104 104
84 84 84
65 65 65
50 50 50
33 33 33
20 20 20
14 14 14
8 8 8
4 4 4
2 2 2
0 0 0
0 0 0
0 0 0
0 0 0
0 0 0
0 0 0
0 0 0
2 2 2
3 3 3
8 8 8
16 16 16
30 30 30
46 46 46
68 68 68
97 97 97
118 118 118
136 136 136
139 139 139
128 128 128
120 120 120
106 106 106
83 83 83
57 57 57
40 40 40
26 26 26
18 18 18
12 12 12
8 8 8
4 4 4
1 1 1
0 0 0
0 0 0
0 0 0
0 0 0
0 0 0
0 0 0
0 0 0
1 1 1
3 3 3
7 7 7
14 14 14
26 26 26
38 38 38
58 58 58
81 81 81
101 101 101
117 117 117
122 122 122
120 120 120
109 109 109
93 93 93
72 72 72
50 50 50
37 37 37
22 22 22
16 16 16
10 10 10
6 6 6
3 3 3
1 1 1
0 0 0
0 0 0
0 0 0
0 0 0
0 0 0
0 0 0
0 0 0
1 1 1
2 2 2
6 6 6
11 11 11
21 21 21
31 31 31
42 42 42
67 67 67
89 89 89
100 100 100
102 102 102
102 102 102
92 92 92
82 82 82
65 65 65
45 45 45
28 28 28
19 19 19
13 13 13
8 8 8
5 5 5
2 2 2
1 1 1
0 0 0
0 0 0
0 0 0
0 0 0
0 0 0
0 0 0
0 0 0
0 0 0
2 2 2
4 4 4
9 9 9
15 15 15
24 24 24
34 34 34
50 50 50
69 69 69
80 80 80
81 81 81
83 83 83
75 75 75
67 67 67
50 50 50
37 37 37
24 24 24
16 16 16
9 9 9
6 6 6
3 3 3
2 2 2
0 0 0
0 0 0
0 0 0
0 0 0
0 0 0
0 0 0
0 0 0
0 0 0
0 0 0
1 1 1
3 3 3
6 6 6
11 11 11
18 18 18
26 26 26
37 37 37
49 49 49
61 61 61
63 63 63
64 64 64
58 58 58
49 49 49
39 39 39
28 28 28
19 19 19
13 13 13
7 7 7
4 4 4
2 2 2
1 1 1
0 0 0
0 0 0
0 0 0
0 0 0
0 0 0
0 0 0
0 0 0
0 0 0
0 0 0
1 1 1
2 2 2
4 4 4
7 7 7
12 12 12
19 19 19
28 28 28
34 34 34
41 41 41
44 44 44
42 42 42
36 36 36
34 34 34
29 29 29
21 21 21
14 14 14
9 9 9
5 5 5
3 3 3
1 1 1
0 0 0
0 0 0
0 0 0
0 0 0
0 0 0
0 0 0
0 0 0
0 0 0
0 0 0
0 0 0
0 0 0
1 1 1
2 2 2
4 4 4
8 8 8
12 12 12
17 17 17
21 21 21
26 26 26
27 27 27
26 26 26
24 24 24
23 23 23
19 19 19
14 14 14
10 10 10
6 6 6
3 3 3
2 2 2
1 1 1
0 0 0
0 0 0
0 0 0
0 0 0
0 0 0
0 0 0
0 0 0
0 0 0
0 0 0
0 0 0
0 0 0
0 0 0
1 1 1
3 3 3
5 5 5
7 7 7
9 9 9
12 12 12
14 14 14
15 15 15
15 15 15
15 15 15
14 14 14
11 11 11
8 8 8
6 6 6
3 3 3
2 2 2
1 1 1
0 0 0
0 0 0
0 0 0
0 0 0
0 0 0
0 0 0
0 0 0
0 0 0
0 0 0
0 0 0
0 0 0
0 0 0
0 0 0
0 0 0
1 1 1
2 2 2
4 4 4
5 5 5
6 6 6
7 7 7
8 8 8
9 9 9
9 9 9
9 9 9
7 7 7
5 5 5
3 3 3
2 2 2
1 1 1
0 0 0
0 0 0
0 0 0
0 0 0
0 0 0
0 0 0
0 0 0
0 0 0
0 0 0
0 0 0
0 0 0
0 0 0
0 0 0
0 0 0
0 0 0
0 0 0
1 1 1
2 2 2
2 2 2
3 3 3
4 4 4
4 4 4
5 5 5
5 5 5
4 4 4
4 4 4
3 3 3
2 2 2
1 1 1
0 0 0
0 0 0
0 0 0
0 0 0
0 0 0
0 0 0
0 0 0
0 0 0
0 0 0
0 0 0
0 0 0
0 0 0
0 0 0
0 0 0
0 0 0
0 0 0
0 0 0
0 0 0
0 0 0
1 1 1
1 1 1
2 2 2
2 2 2
2 2 2
2 2 2
2 2 2
2 2 2
1 1 1
1 1 1
0 0 0
0 0 0
0 0 0
0 0 0
0 0 0
0 0 0
0 0 0
0 0 0
0 0 0
0 0 0
0 0 0
0 0 0
0 0 0
0 0 0
0 0 0
0 0 0
0 0 0
0 0 0
0 0 0
0 0 0
0 0 0
0 0 0
0 0 0
1 1 1
1 1 1
1 1 1
1 1 1
0 0 0
0 0 0
0 0 0
0 0 0
0 0 0
0 0 0
0 0 0
0 0 0
0 0 0
0 0 0
0 0 0
0 0 0
0 0 0
0 0 0
0 0 0
0 0 0
0 0 0
0 0 0
0 0 0
0 0 0
0 0 0
0 0 0
0 0 0
0 0 0
0 0 0
0 0 0
0 0 0
0 0 0
0 0 0
0 0 0
0 0 0
0 0 0
0 0 0
0 0 0
0 0 0
0 0 0
0 0 0
0 0 0
0 0 0
0 0 0
0 0 0
0 0 0
0 0 0
0 0 0
0 0 0
0 0 0
0 0 0
0 0 0
0 0 0
0 0 0
0 0 0
0 0 0
0 0 0
0 0 0
0 0 0
0 0 0
0 0 0
0 0 0
0 0 0
0 0 0
0 0 0
0 0 0
0 0 0
0 0 0
0 0 0
0 0 0
0 0 0
0 0 0
0 0 0
0 0 0
0 0 0
0 0 0
