P3
64 64
255
0 0 0
0 0 0
0 0 0
0 0 0
0 0 0
0 0 0
0 0 0
0 0 0
0 0 0
0 0 0
1 1 1
2 2 2
5 5 5
5 5 5
7 7 7
11 11 11
12 12 12
11 11 11
13 13 13
13 13 13
12 12 12
8 8 8
6 6 6
7 7 7
7 7 7
6 6 6
4 4 4
2 2 2
0 0 0
1 1 1
3 3 3
4 4 4
2 2 2
0 0 0
0 0 0
0 0 0
0 0 0
0 0 0
0 0 0
0 0 0
0 0 0
0 0 0
0 0 0
0 0 0
0 0 0
0 0 0
0 0 0
2 2 2
2 2 2
1 1 1
1 1 1
2 2 2
3 3 3
2 2 2
1 1 1
0 0 0
0 0 0
0 0 0
0 0 0
0 0 0
0 0 0
0 0 0
0 0 0
0 0 0
0 0 0
0 0 0
0 0 0
0 0 0
0 0 0
0 0 0
0 0 0
0 0 0
1 1 1
1 1 1
2 2 2
3 3 3
4 4 4
4 4 4
7 7 7
10 10 10
12 12 12
15 15 15
18 18 18
18 18 18
18 18 18
12 12 12
7 7 7
9 9 9
10 10 10
14 14 14
12 12 12
6 6 6
2 2 2
4 4 4
8 8 8
7 7 7
3 3 3
2 2 2
0 0 0
0 0 0
0 0 0
0 0 0
0 0 0
0 0 0
0 0 0
0 0 0
0 0 0
0 0 0
0 0 0
0 0 0
1 1 1
3 3 3
5 5 5
3 3 3
2 2 2
4 4 4
4 4 4
2 2 2
0 0 0
0 0 0
0 0 0
0 0 0
0 0 0
0 0 0
0 0 0
0 0 0
0 0 0
0 0 0
0 0 0
0 0 0
0 0 0
0 0 0
0 0 0
0 0 0
0 0 0
1 1 1
1 1 1
2 2 2
3 3 3
3 3 3
4 4 4
5 5 5
7 7 7
8 8 8
10 10 10
13 13 13
19 19 19
21 21 21
24 24 24
14 14 14
8 8 8
10 10 10
12 12 12
16 16 16
17 17 17
9 9 9
7 7 7
7 7 7
10 10 10
8 8 8
4 4 4
5 5 5
3 3 3
0 0 0
0 0 0
0 0 0
1 1 1
3 3 3
2 2 2
1 1 1
0 0 0
0 0 0
0 0 0
0 0 0
1 1 1
2 2 2
6 6 6
6 6 6
4 4 4
6 6 6
6 6 6
3 3 3
2 2 2
1 1 1
0 0 0
0 0 0
0 0 0
0 0 0
0 0 0
0 0 0
0 0 0
0 0 0
0 0 0
0 0 0
1 1 1
0 0 0
0 0 0
0 0 0
1 1 1
2 2 2
4 4 4
5 5 5
7 7 7
7 7 7
7 7 7
8 8 8
11 11 11
11 11 11
11 11 11
11 11 11
13 13 13
18 18 18
22 22 22
17 17 17
11 11 11
11 11 11
14 14 14
17 17 17
18 18 18
15 15 15
17 17 17
14 14 14
12 12 12
11 11 11
8 8 8
7 7 7
3 3 3
1 1 1
1 1 1
2 2 2
4 4 4
7 7 7
5 5 5
3 3 3
1 1 1
1 1 1
1 1 1
1 1 1
3 3 3
4 4 4
7 7 7
10 10 10
8 8 8
6 6 6
4 4 4
3 3 3
1 1 1
0 0 0
0 0 0
0 0 0
0 0 0
0 0 0
0 0 0
0 0 0
0 0 0
0 0 0
0 0 0
0 0 0
1 1 1
1 1 1
1 1 1
1 1 1
1 1 1
3 3 3
5 5 5
6 6 6
7 7 7
8 8 8
10 10 10
13 13 13
15 15 15
17 17 17
13 13 13
12 12 12
13 13 13
16 16 16
16 16 16
15 15 15
14 14 14
14 14 14
14 14 14
14 14 14
14 14 14
16 16 16
18 18 18
17 17 17
12 12 12
15 15 15
13 13 13
9 9 9
7 7 7
3 3 3
2 2 2
5 5 5
10 10 10
10 10 10
5 5 5
2 2 2
2 2 2
1 1 1
1 1 1
3 3 3
8 8 8
7 7 7
6 6 6
10 10 10
10 10 10
5 5 5
3 3 3
2 2 2
3 3 3
2 2 2
1 1 1
0 0 0
0 0 0
0 0 0
1 1 1
1 1 1
0 0 0
0 0 0
0 0 0
0 0 0
1 1 1
2 2 2
1 1 1
1 1 1
3 3 3
3 3 3
4 4 4
5 5 5
6 6 6
7 7 7
10 10 10
13 13 13
16 16 16
17 17 17
16 16 16
18 18 18
18 18 18
19 19 19
14 14 14
12 12 12
14 14 14
14 14 14
12 12 12
12 12 12
12 12 12
16 16 16
11 11 11
8 8 8
9 9 9
18 18 18
13 13 13
11 11 11
8 8 8
6 6 6
5 5 5
9 9 9
11 11 11
9 9 9
6 6 6
5 5 5
4 4 4
2 2 2
2 2 2
4 4 4
10 10 10
10 10 10
8 8 8
10 10 10
10 10 10
7 7 7
6 6 6
4 4 4
5 5 5
3 3 3
3 3 3
2 2 2
1 1 1
0 0 0
1 1 1
1 1 1
0 0 0
0 0 0
0 0 0
2 2 2
3 3 3
2 2 2
2 2 2
3 3 3
4 4 4
5 5 5
5 5 5
6 6 6
7 7 7
10 10 10
12 12 12
13 13 13
15 15 15
16 16 16
16 16 16
20 20 20
24 24 24
18 18 18
16 16 16
17 17 17
19 19 19
16 16 16
11 11 11
8 8 8
9 9 9
16 16 16
16 16 16
13 13 13
6 6 6
10 10 10
10 10 10
6 6 6
4 4 4
6 6 6
12 12 12
17 17 17
14 14 14
13 13 13
11 11 11
10 10 10
10 10 10
4 4 4
3 3 3
6 6 6
8 8 8
8 8 8
13 13 13
15 15 15
14 14 14
11 11 11
9 9 9
7 7 7
6 6 6
3 3 3
2 2 2
1 1 1
1 1 1
1 1 1
2 2 2
0 0 0
0 0 0
0 0 0
0 0 0
2 2 2
4 4 4
4 4 4
4 4 4
5 5 5
6 6 6
7 7 7
6 6 6
8 8 8
11 11 11
14 14 14
17 17 17
18 18 18
20 20 20
23 23 23
20 20 20
21 21 21
25 25 25
17 17 17
16 16 16
19 19 19
21 21 21
24 24 24
15 15 15
8 8 8
9 9 9
11 11 11
15 15 15
15 15 15
6 6 6
10 10 10
8 8 8
4 4 4
4 4 4
8 8 8
15 15 15
24 24 24
21 21 21
21 21 21
18 18 18
18 18 18
13 13 13
6 6 6
5 5 5
6 6 6
8 8 8
11 11 11
16 16 16
17 17 17
12 12 12
13 13 13
12 12 12
9 9 9
7 7 7
5 5 5
3 3 3
1 1 1
2 2 2
3 3 3
2 2 2
1 1 1
0 0 0
0 0 0
1 1 1
2 2 2
5 5 5
6 6 6
7 7 7
8 8 8
8 8 8
8 8 8
10 10 10
11 11 11
14 14 14
15 15 15
17 17 17
22 22 22
26 26 26
33 33 33
28 28 28
25 25 25
23 23 23
19 19 19
13 13 13
11 11 11
12 12 12
17 17 17
17 17 17
12 12 12
8 8 8
8 8 8
9 9 9
11 11 11
6 6 6
9 9 9
7 7 7
4 4 4
6 6 6
13 13 13
17 17 17
16 16 16
16 16 16
23 23 23
26 26 26
24 24 24
17 17 17
9 9 9
7 7 7
7 7 7
11 11 11
15 15 15
14 14 14
12 12 12
10 10 10
13 13 13
15 15 15
13 13 13
7 7 7
5 5 5
4 4 4
3 3 3
4 4 4
5 5 5
4 4 4
2 2 2
1 1 1
0 0 0
3 3 3
4 4 4
5 5 5
6 6 6
6 6 6
5 5 5
6 6 6
8 8 8
10 10 10
10 10 10
11 11 11
15 15 15
19 19 19
22 22 22
24 24 24
35 35 35
39 39 39
30 30 30
22 22 22
17 17 17
13 13 13
11 11 11
11 11 11
18 18 18
21 21 21
15 15 15
11 11 11
7 7 7
8 8 8
9 9 9
6 6 6
9 9 9
9 9 9
6 6 6
11 11 11
17 17 17
14 14 14
12 12 12
14 14 14
19 19 19
27 27 27
23 23 23
18 18 18
13 13 13
10 10 10
9 9 9
10 10 10
12 12 12
13 13 13
11 11 11
8 8 8
10 10 10
15 15 15
14 14 14
7 7 7
8 8 8
8 8 8
8 8 8
8 8 8
6 6 6
4 4 4
3 3 3
2 2 2
1 1 1
5 5 5
7 7 7
7 7 7
5 5 5
5 5 5
3 3 3
5 5 5
8 8 8
10 10 10
11 11 11
13 13 13
16 16 16
21 21 21
25 25 25
24 24 24
29 29 29
38 38 38
41 41 41
30 30 30
20 20 20
17 17 17
13 13 13
13 13 13
17 17 17
20 20 20
13 13 13
9 9 9
8 8 8
7 7 7
7 7 7
6 6 6
7 7 7
7 7 7
7 7 7
10 10 10
11 11 11
9 9 9
10 10 10
14 14 14
18 18 18
21 21 21
25 25 25
22 22 22
17 17 17
14 14 14
12 12 12
11 11 11
10 10 10
11 11 11
10 10 10
8 8 8
10 10 10
14 14 14
13 13 13
10 10 10
10 10 10
9 9 9
12 12 12
10 10 10
7 7 7
5 5 5
4 4 4
2 2 2
1 1 1
4 4 4
6 6 6
7 7 7
6 6 6
5 5 5
5 5 5
5 5 5
6 6 6
11 11 11
13 13 13
15 15 15
14 14 14
19 19 19
21 21 21
25 25 25
31 31 31
40 40 40
48 48 48
40 40 40
32 32 32
25 25 25
20 20 20
16 16 16
16 16 16
15 15 15
13 13 13
12 12 12
11 11 11
10 10 10
8 8 8
8 8 8
8 8 8
8 8 8
8 8 8
9 9 9
10 10 10
10 10 10
11 11 11
14 14 14
17 17 17
21 21 21
31 31 31
37 37 37
30 30 30
27 27 27
18 18 18
13 13 13
12 12 12
11 11 11
10 10 10
10 10 10
10 10 10
12 12 12
13 13 13
10 10 10
6 6 6
5 5 5
8 8 8
8 8 8
7 7 7
4 4 4
2 2 2
1 1 1
0 0 0
1 1 1
2 2 2
3 3 3
6 6 6
6 6 6
6 6 6
5 5 5
5 5 5
8 8 8
8 8 8
10 10 10
11 11 11
14 14 14
18 18 18
24 24 24
29 29 29
37 37 37
46 46 46
41 41 41
35 35 35
31 31 31
27 27 27
23 23 23
21 21 21
19 19 19
17 17 17
16 16 16
21 21 21
20 20 20
12 12 12
10 10 10
10 10 10
10 10 10
11 11 11
12 12 12
12 12 12
13 13 13
14 14 14
15 15 15
18 18 18
28 28 28
36 36 36
44 44 44
44 44 44
36 36 36
24 24 24
18 18 18
17 17 17
17 17 17
15 15 15
15 15 15
17 17 17
13 13 13
7 7 7
4 4 4
3 3 3
3 3 3
5 5 5
7 7 7
6 6 6
4 4 4
2 2 2
0 0 0
0 0 0
0 0 0
1 1 1
3 3 3
5 5 5
7 7 7
5 5 5
4 4 4
5 5 5
6 6 6
7 7 7
9 9 9
11 11 11
15 15 15
20 20 20
25 25 25
31 31 31
34 34 34
40 40 40
47 47 47
45 45 45
36 36 36
33 33 33
34 34 34
34 34 34
28 28 28
23 23 23
23 23 23
32 32 32
33 33 33
27 27 27
15 15 15
13 13 13
13 13 13
14 14 14
15 15 15
18 18 18
23 23 23
22 22 22
18 18 18
20 20 20
27 27 27
32 32 32
46 46 46
53 53 53
45 45 45
31 31 31
23 23 23
27 27 27
28 28 28
25 25 25
27 27 27
26 26 26
12 12 12
5 5 5
2 2 2
2 2 2
3 3 3
7 7 7
5 5 5
4 4 4
6 6 6
4 4 4
1 1 1
0 0 0
0 0 0
1 1 1
4 4 4
7 7 7
6 6 6
4 4 4
4 4 4
6 6 6
8 8 8
9 9 9
11 11 11
14 14 14
22 22 22
28 28 28
34 34 34
42 42 42
46 46 46
48 48 48
55 55 55
61 61 61
51 51 51
50 50 50
57 57 57
59 59 59
40 40 40
34 34 34
38 38 38
48 48 48
47 47 47
27 27 27
20 20 20
17 17 17
16 16 16
17 17 17
19 19 19
23 23 23
33 33 33
39 39 39
27 27 27
25 25 25
28 28 28
35 35 35
50 50 50
76 76 76
72 72 72
47 47 47
34 34 34
34 34 34
34 34 34
32 32 32
30 30 30
23 23 23
13 13 13
7 7 7
4 4 4
1 1 1
2 2 2
3 3 3
4 4 4
4 4 4
5 5 5
3 3 3
2 2 2
0 0 0
0 0 0
2 2 2
3 3 3
5 5 5
4 4 4
4 4 4
6 6 6
9 9 9
15 15 15
16 16 16
14 14 14
19 19 19
28 28 28
34 34 34
39 39 39
43 43 43
49 49 49
57 57 57
66 66 66
77 77 77
78 78 78
82 82 82
79 79 79
72 72 72
55 55 55
47 47 47
59 59 59
63 63 63
54 54 54
40 40 40
31 31 31
23 23 23
20 20 20
22 22 22
25 25 25
30 30 30
47 47 47
56 56 56
40 40 40
37 37 37
43 43 43
52 52 52
60 60 60
82 82 82
85 85 85
56 56 56
45 45 45
36 36 36
35 35 35
27 27 27
17 17 17
15 15 15
17 17 17
14 14 14
6 6 6
3 3 3
1 1 1
1 1 1
2 2 2
4 4 4
5 5 5
1 1 1
0 0 0
0 0 0
0 0 0
1 1 1
2 2 2
3 3 3
3 3 3
5 5 5
8 8 8
15 15 15
22 22 22
24 24 24
21 21 21
23 23 23
26 26 26
27 27 27
29 29 29
37 37 37
45 45 45
51 51 51
65 65 65
71 71 71
76 76 76
88 88 88
103 103 103
97 97 97
70 70 70
62 62 62
64 64 64
52 52 52
47 47 47
44 44 44
36 36 36
28 28 28
24 24 24
26 26 26
30 30 30
39 39 39
66 66 66
67 67 67
50 50 50
52 52 52
55 55 55
62 62 62
64 64 64
57 57 57
57 57 57
50 50 50
41 41 41
37 37 37
30 30 30
21 21 21
12 12 12
9 9 9
12 12 12
14 14 14
9 9 9
4 4 4
1 1 1
2 2 2
5 5 5
5 5 5
6 6 6
3 3 3
1 1 1
0 0 0
0 0 0
0 0 0
1 1 1
2 2 2
3 3 3
7 7 7
13 13 13
19 19 19
24 24 24
29 29 29
27 27 27
30 30 30
30 30 30
28 28 28
32 32 32
39 39 39
47 47 47
48 48 48
50 50 50
52 52 52
54 54 54
67 67 67
96 96 96
111 111 111
101 101 101
84 84 84
73 73 73
58 58 58
48 48 48
35 35 35
31 31 31
28 28 28
29 29 29
32 32 32
35 35 35
50 50 50
69 69 69
67 67 67
70 70 70
83 83 83
63 63 63
42 42 42
36 36 36
40 40 40
45 45 45
61 61 61
61 61 61
46 46 46
30 30 30
26 26 26
16 16 16
8 8 8
8 8 8
7 7 7
3 3 3
1 1 1
0 0 0
1 1 1
3 3 3
4 4 4
3 3 3
4 4 4
2 2 2
0 0 0
0 0 0
0 0 0
1 1 1
2 2 2
4 4 4
9 9 9
17 17 17
20 20 20
22 22 22
23 23 23
20 20 20
25 25 25
33 33 33
37 37 37
40 40 40
43 43 43
38 38 38
37 37 37
36 36 36
39 39 39
45 45 45
55 55 55
76 76 76
105 105 105
130 130 130
118 118 118
85 85 85
66 66 66
50 50 50
36 36 36
33 33 33
33 33 33
34 34 34
40 40 40
52 52 52
62 62 62
67 67 67
63 63 63
66 66 66
67 67 67
59 59 59
34 34 34
24 24 24
25 25 25
30 30 30
48 48 48
61 61 61
50 50 50
37 37 37
27 27 27
16 16 16
9 9 9
5 5 5
3 3 3
1 1 1
0 0 0
0 0 0
0 0 0
3 3 3
3 3 3
2 2 2
2 2 2
3 3 3
1 1 1
0 0 0
0 0 0
1 1 1
2 2 2
4 4 4
11 11 11
18 18 18
17 17 17
16 16 16
23 23 23
24 24 24
26 26 26
31 31 31
32 32 32
34 34 34
38 38 38
30 30 30
31 31 31
34 34 34
38 38 38
48 48 48
58 58 58
72 72 72
86 86 86
119 119 119
130 130 130
85 85 85
63 63 63
52 52 52
42 42 42
41 41 41
44 44 44
43 43 43
48 48 48
52 52 52
59 59 59
56 56 56
42 42 42
50 50 50
66 66 66
73 73 73
39 39 39
23 23 23
18 18 18
20 20 20
30 30 30
38 38 38
44 44 44
42 42 42
30 30 30
20 20 20
16 16 16
7 7 7
6 6 6
6 6 6
2 2 2
0 0 0
0 0 0
1 1 1
1 1 1
1 1 1
0 0 0
0 0 0
0 0 0
0 0 0
1 1 1
3 3 3
6 6 6
8 8 8
12 12 12
15 15 15
11 11 11
13 13 13
21 21 21
26 26 26
33 33 33
36 36 36
26 26 26
29 29 29
32 32 32
30 30 30
33 33 33
36 36 36
40 40 40
53 53 53
72 72 72
85 85 85
91 91 91
90 90 90
113 113 113
94 94 94
65 65 65
56 56 56
54 54 54
53 53 53
56 56 56
63 63 63
73 73 73
61 61 61
40 40 40
33 33 33
29 29 29
39 39 39
64 64 64
67 67 67
42 42 42
32 32 32
17 17 17
14 14 14
16 16 16
19 19 19
29 29 29
38 38 38
35 35 35
32 32 32
24 24 24
12 12 12
14 14 14
15 15 15
6 6 6
2 2 2
0 0 0
0 0 0
0 0 0
0 0 0
0 0 0
0 0 0
0 0 0
1 1 1
4 4 4
6 6 6
10 10 10
11 11 11
9 9 9
14 14 14
9 9 9
9 9 9
17 17 17
22 22 22
27 27 27
31 31 31
28 28 28
27 27 27
31 31 31
33 33 33
38 38 38
41 41 41
44 44 44
52 52 52
68 68 68
95 95 95
105 105 105
97 97 97
113 113 113
118 118 118
80 80 80
73 73 73
79 79 79
75 75 75
67 67 67
77 77 77
89 89 89
63 63 63
38 38 38
26 26 26
25 25 25
37 37 37
58 58 58
40 40 40
29 29 29
29 29 29
16 16 16
11 11 11
11 11 11
14 14 14
21 21 21
29 29 29
31 31 31
30 30 30
25 25 25
18 18 18
15 15 15
14 14 14
5 5 5
2 2 2
1 1 1
0 0 0
0 0 0
0 0 0
0 0 0
0 0 0
0 0 0
0 0 0
3 3 3
5 5 5
7 7 7
6 6 6
4 4 4
6 6 6
6 6 6
7 7 7
15 15 15
15 15 15
15 15 15
18 18 18
22 22 22
26 26 26
32 32 32
39 39 39
49 49 49
54 54 54
54 54 54
59 59 59
72 72 72
90 90 90
112 112 112
112 112 112
102 102 102
104 104 104
104 104 104
99 99 99
112 112 112
108 108 108
90 90 90
93 93 93
74 74 74
58 58 58
36 36 36
26 26 26
24 24 24
28 28 28
36 36 36
23 23 23
18 18 18
19 19 19
13 13 13
10 10 10
10 10 10
12 12 12
22 22 22
18 18 18
13 13 13
18 18 18
12 12 12
9 9 9
7 7 7
9 9 9
3 3 3
1 1 1
0 0 0
0 0 0
0 0 0
0 0 0
0 0 0
0 0 0
0 0 0
0 0 0
1 1 1
5 5 5
5 5 5
3 3 3
3 3 3
4 4 4
5 5 5
6 6 6
11 11 11
12 12 12
13 13 13
17 17 17
21 21 21
27 27 27
36 36 36
50 50 50
71 71 71
87 87 87
82 82 82
78 78 78
90 90 90
89 89 89
108 108 108
108 108 108
82 82 82
80 80 80
96 96 96
103 103 103
116 116 116
114 114 114
120 120 120
111 111 111
62 62 62
45 45 45
34 34 34
28 28 28
25 25 25
24 24 24
23 23 23
20 20 20
17 17 17
15 15 15
12 12 12
11 11 11
10 10 10
10 10 10
13 13 13
11 11 11
11 11 11
17 17 17
9 9 9
4 4 4
7 7 7
8 8 8
5 5 5
2 2 2
0 0 0
0 0 0
0 0 0
0 0 0
0 0 0
0 0 0
0 0 0
0 0 0
1 1 1
4 4 4
3 3 3
2 2 2
3 3 3
4 4 4
5 5 5
6 6 6
8 8 8
10 10 10
13 13 13
17 17 17
22 22 22
29 29 29
38 38 38
60 60 60
84 84 84
90 90 90
82 82 82
70 70 70
73 73 73
71 71 71
83 83 83
97 97 97
85 85 85
72 72 72
82 82 82
78 78 78
82 82 82
97 97 97
105 105 105
80 80 80
60 60 60
60 60 60
44 44 44
33 33 33
31 31 31
31 31 31
32 32 32
30 30 30
23 23 23
18 18 18
15 15 15
13 13 13
11 11 11
10 10 10
11 11 11
13 13 13
11 11 11
9 9 9
4 4 4
3 3 3
3 3 3
2 2 2
1 1 1
0 0 0
0 0 0
0 0 0
0 0 0
0 0 0
0 0 0
0 0 0
0 0 0
0 0 0
1 1 1
2 2 2
3 3 3
3 3 3
4 4 4
4 4 4
5 5 5
7 7 7
8 8 8
11 11 11
14 14 14
19 19 19
24 24 24
30 30 30
39 39 39
57 57 57
74 74 74
77 77 77
65 65 65
48 48 48
48 48 48
54 54 54
66 66 66
91 91 91
94 94 94
66 66 66
65 65 65
67 67 67
84 84 84
98 98 98
106 106 106
90 90 90
81 81 81
81 81 81
63 63 63
44 44 44
40 40 40
49 49 49
58 58 58
51 51 51
40 40 40
33 33 33
25 25 25
17 17 17
14 14 14
16 16 16
23 23 23
29 29 29
20 20 20
11 11 11
5 5 5
3 3 3
2 2 2
1 1 1
1 1 1
1 1 1
0 0 0
1 1 1
1 1 1
0 0 0
0 0 0
0 0 0
0 0 0
1 1 1
1 1 1
3 3 3
7 7 7
7 7 7
6 6 6
5 5 5
6 6 6
7 7 7
9 9 9
12 12 12
21 21 21
28 28 28
36 36 36
37 37 37
39 39 39
51 51 51
66 66 66
78 78 78
55 55 55
42 42 42
41 41 41
47 47 47
63 63 63
84 84 84
92 92 92
75 75 75
65 65 65
68 68 68
87 87 87
115 115 115
130 130 130
124 124 124
106 106 106
79 79 79
65 65 65
56 56 56
54 54 54
61 61 61
66 66 66
63 63 63
71 71 71
56 56 56
37 37 37
24 24 24
21 21 21
26 26 26
37 37 37
33 33 33
27 27 27
21 21 21
10 10 10
4 4 4
2 2 2
1 1 1
3 3 3
6 6 6
5 5 5
4 4 4
1 1 1
0 0 0
0 0 0
0 0 0
0 0 0
2 2 2
4 4 4
6 6 6
12 12 12
6 6 6
5 5 5
6 6 6
7 7 7
8 8 8
10 10 10
16 16 16
29 29 29
37 37 37
46 46 46
46 46 46
44 44 44
46 46 46
57 57 57
66 66 66
58 58 58
39 39 39
39 39 39
43 43 43
59 59 59
80 80 80
103 103 103
97 97 97
83 83 83
86 86 86
87 87 87
121 121 121
146 146 146
143 143 143
101 101 101
84 84 84
80 80 80
86 86 86
76 76 76
75 75 75
77 77 77
98 98 98
116 116 116
82 82 82
45 45 45
38 38 38
35 35 35
37 37 37
50 50 50
40 40 40
35 35 35
35 35 35
20 20 20
8 8 8
3 3 3
3 3 3
4 4 4
7 7 7
10 10 10
5 5 5
0 0 0
0 0 0
0 0 0
0 0 0
0 0 0
5 5 5
9 9 9
12 12 12
10 10 10
7 7 7
7 7 7
7 7 7
8 8 8
9 9 9
13 13 13
26 26 26
40 40 40
50 50 50
53 53 53
64 64 64
55 55 55
53 53 53
61 61 61
46 46 46
42 42 42
37 37 37
38 38 38
42 42 42
57 57 57
80 80 80
91 91 91
104 104 104
111 111 111
104 104 104
100 100 100
117 117 117
144 144 144
152 152 152
108 108 108
98 98 98
108 108 108
115 115 115
114 114 114
116 116 116
108 108 108
119 119 119
114 114 114
69 69 69
43 43 43
48 48 48
55 55 55
59 59 59
61 61 61
48 48 48
43 43 43
39 39 39
24 24 24
11 11 11
7 7 7
6 6 6
10 10 10
13 13 13
13 13 13
7 7 7
2 2 2
2 2 2
2 2 2
0 0 0
0 0 0
8 8 8
13 13 13
14 14 14
9 9 9
9 9 9
12 12 12
9 9 9
9 9 9
10 10 10
14 14 14
27 27 27
41 41 41
50 50 50
45 45 45
56 56 56
62 62 62
57 57 57
53 53 53
45 45 45
39 39 39
42 42 42
47 47 47
45 45 45
60 60 60
75 75 75
76 76 76
94 94 94
128 128 128
122 122 122
135 135 135
152 152 152
167 167 167
179 179 179
137 137 137
110 110 110
108 108 108
120 120 120
127 127 127
138 138 138
123 123 123
98 98 98
84 84 84
55 55 55
44 44 44
46 46 46
44 44 44
56 56 56
62 62 62
53 53 53
54 54 54
33 33 33
21 21 21
14 14 14
16 16 16
11 11 11
12 12 12
17 17 17
14 14 14
9 9 9
7 7 7
6 6 6
4 4 4
0 0 0
0 0 0
9 9 9
13 13 13
13 13 13
12 12 12
17 17 17
17 17 17
12 12 12
10 10 10
11 11 11
14 14 14
22 22 22
34 34 34
32 32 32
29 29 29
34 34 34
43 43 43
50 50 50
44 44 44
42 42 42
48 48 48
57 57 57
65 65 65
52 52 52
50 50 50
57 57 57
66 66 66
83 83 83
109 109 109
132 132 132
148 148 148
176 176 176
200 200 200
199 199 199
152 152 152
127 127 127
122 122 122
128 128 128
140 140 140
141 141 141
114 114 114
93 93 93
77 77 77
66 66 66
53 53 53
45 45 45
44 44 44
48 48 48
56 56 56
57 57 57
49 49 49
31 31 31
18 18 18
21 21 21
28 28 28
22 22 22
16 16 16
17 17 17
13 13 13
12 12 12
8 8 8
5 5 5
3 3 3
2 2 2
0 0 0
13 13 13
17 17 17
15 15 15
15 15 15
22 22 22
20 20 20
13 13 13
12 12 12
13 13 13
15 15 15
22 22 22
33 33 33
31 31 31
27 27 27
30 30 30
36 36 36
41 41 41
42 42 42
45 45 45
58 58 58
77 77 77
67 67 67
51 51 51
53 53 53
63 63 63
82 82 82
92 92 92
94 94 94
119 119 119
155 155 155
191 191 191
255 255 255
216 216 216
153 153 153
135 135 135
124 124 124
118 118 118
141 141 141
141 141 141
146 146 146
121 121 121
89 89 89
83 83 83
64 64 64
55 55 55
63 63 63
62 62 62
52 52 52
40 40 40
28 28 28
28 28 28
18 18 18
16 16 16
28 28 28
27 27 27
12 12 12
9 9 9
7 7 7
10 10 10
5 5 5
4 4 4
1 1 1
2 2 2
0 0 0
12 12 12
17 17 17
18 18 18
17 17 17
25 25 25
26 26 26
16 16 16
15 15 15
16 16 16
17 17 17
21 21 21
28 28 28
32 32 32
31 31 31
36 36 36
44 44 44
57 57 57
58 58 58
64 64 64
71 71 71
80 80 80
63 63 63
55 55 55
60 60 60
80 80 80
107 107 107
106 106 106
103 103 103
118 118 118
152 152 152
191 191 191
228 228 228
209 209 209
152 152 152
120 120 120
109 109 109
112 112 112
131 131 131
111 111 111
110 110 110
113 113 113
111 111 111
104 104 104
77 77 77
70 70 70
69 69 69
70 70 70
55 55 55
35 35 35
27 27 27
25 25 25
21 21 21
22 22 22
27 27 27
20 20 20
11 11 11
5 5 5
3 3 3
4 4 4
2 2 2
1 1 1
0 0 0
0 0 0
0 0 0
10 10 10
20 20 20
24 24 24
22 22 22
28 28 28
27 27 27
20 20 20
19 19 19
20 20 20
20 20 20
23 23 23
27 27 27
35 35 35
42 42 42
46 46 46
56 56 56
75 75 75
71 71 71
90 90 90
90 90 90
74 74 74
64 64 64
65 65 65
71 71 71
81 81 81
101 101 101
121 121 121
129 129 129
126 126 126
140 140 140
166 166 166
168 168 168
190 190 190
163 163 163
137 137 137
122 122 122
124 124 124
137 137 137
100 100 100
82 82 82
81 81 81
94 94 94
100 100 100
96 96 96
87 87 87
82 82 82
77 77 77
62 62 62
46 46 46
40 40 40
41 41 41
30 30 30
29 29 29
24 24 24
13 13 13
11 11 11
5 5 5
1 1 1
1 1 1
0 0 0
0 0 0
0 0 0
0 0 0
0 0 0
9 9 9
17 17 17
20 20 20
26 26 26
31 31 31
29 29 29
26 26 26
25 25 25
27 27 27
26 26 26
29 29 29
38 38 38
44 44 44
58 58 58
65 65 65
71 71 71
78 78 78
75 75 75
94 94 94
89 89 89
74 74 74
80 80 80
99 99 99
100 100 100
90 90 90
97 97 97
122 122 122
149 149 149
142 142 142
124 124 124
115 115 115
126 126 126
170 170 170
173 173 173
151 151 151
135 135 135
125 125 125
147 147 147
114 114 114
82 82 82
69 69 69
68 68 68
70 70 70
77 77 77
75 75 75
82 82 82
64 64 64
51 51 51
53 53 53
51 51 51
47 47 47
25 25 25
19 19 19
16 16 16
9 9 9
5 5 5
2 2 2
0 0 0
0 0 0
0 0 0
0 0 0
0 0 0
0 0 0
0 0 0
4 4 4
9 9 9
15 15 15
21 21 21
28 28 28
36 36 36
39 39 39
33 33 33
35 35 35
32 32 32
34 34 34
47 47 47
50 50 50
61 61 61
63 63 63
71 71 71
81 81 81
89 89 89
102 102 102
103 103 103
88 88 88
91 91 91
110 110 110
120 120 120
118 118 118
131 131 131
129 129 129
129 129 129
131 131 131
109 109 109
89 89 89
97 97 97
128 128 128
164 164 164
154 154 154
132 132 132
125 125 125
140 140 140
120 120 120
88 88 88
73 73 73
71 71 71
68 68 68
60 60 60
63 63 63
62 62 62
50 50 50
49 49 49
50 50 50
34 34 34
23 23 23
12 12 12
7 7 7
6 6 6
5 5 5
3 3 3
2 2 2
0 0 0
0 0 0
0 0 0
0 0 0
0 0 0
0 0 0
0 0 0
2 2 2
8 8 8
14 14 14
15 15 15
21 21 21
30 30 30
31 31 31
27 27 27
32 32 32
40 40 40
42 42 42
49 49 49
57 57 57
61 61 61
65 65 65
67 67 67
75 75 75
93 93 93
109 109 109
127 127 127
121 121 121
99 99 99
110 110 110
124 124 124
152 152 152
178 178 178
131 131 131
112 112 112
130 130 130
102 102 102
86 86 86
90 90 90
98 98 98
131 131 131
141 141 141
122 122 122
105 105 105
120 120 120
126 126 126
99 99 99
100 100 100
106 106 106
88 88 88
62 62 62
67 67 67
78 78 78
61 61 61
55 55 55
46 46 46
23 23 23
16 16 16
9 9 9
6 6 6
5 5 5
3 3 3
4 4 4
6 6 6
3 3 3
0 0 0
0 0 0
0 0 0
0 0 0
0 0 0
0 0 0
1 1 1
5 5 5
9 9 9
17 17 17
23 23 23
22 22 22
18 18 18
17 17 17
25 25 25
35 35 35
42 42 42
51 51 51
60 60 60
72 72 72
76 76 76
78 78 78
75 75 75
86 86 86
99 99 99
124 124 124
110 110 110
88 88 88
106 106 106
122 122 122
150 150 150
141 141 141
108 108 108
109 109 109
101 101 101
96 96 96
88 88 88
83 83 83
90 90 90
112 112 112
108 108 108
107 107 107
101 101 101
90 90 90
88 88 88
95 95 95
109 109 109
107 107 107
87 87 87
68 68 68
72 72 72
99 99 99
96 96 96
56 56 56
31 31 31
18 18 18
12 12 12
10 10 10
12 12 12
13 13 13
9 9 9
9 9 9
9 9 9
2 2 2
0 0 0
0 0 0
0 0 0
0 0 0
0 0 0
0 0 0
1 1 1
4 4 4
10 10 10
20 20 20
23 23 23
15 15 15
13 13 13
13 13 13
19 19 19
23 23 23
31 31 31
38 38 38
41 41 41
48 48 48
64 64 64
81 81 81
65 65 65
51 51 51
51 51 51
68 68 68
57 57 57
55 55 55
69 69 69
67 67 67
80 80 80
80 80 80
86 86 86
90 90 90
61 61 61
58 58 58
59 59 59
62 62 62
76 76 76
102 102 102
90 90 90
100 100 100
103 103 103
72 72 72
60 60 60
62 62 62
73 73 73
79 79 79
81 81 81
75 75 75
78 78 78
101 101 101
104 104 104
58 58 58
32 32 32
19 19 19
14 14 14
17 17 17
24 24 24
25 25 25
16 16 16
11 11 11
8 8 8
2 2 2
0 0 0
0 0 0
0 0 0
0 0 0
0 0 0
0 0 0
2 2 2
6 6 6
10 10 10
19 19 19
21 21 21
14 14 14
11 11 11
11 11 11
12 12 12
15 15 15
19 19 19
26 26 26
29 29 29
38 38 38
51 51 51
61 61 61
49 49 49
43 43 43
50 50 50
53 53 53
37 37 37
38 38 38
41 41 41
37 37 37
39 39 39
43 43 43
60 60 60
76 76 76
72 72 72
60 60 60
46 46 46
46 46 46
58 58 58
74 74 74
90 90 90
98 98 98
101 101 101
79 79 79
58 58 58
47 47 47
59 59 59
85 85 85
67 67 67
49 49 49
55 55 55
61 61 61
66 66 66
59 59 59
37 37 37
22 22 22
18 18 18
23 23 23
30 30 30
25 25 25
17 17 17
12 12 12
6 6 6
2 2 2
1 1 1
0 0 0
0 0 0
0 0 0
0 0 0
0 0 0
3 3 3
8 8 8
13 13 13
18 18 18
23 23 23
19 19 19
13 13 13
10 10 10
11 11 11
14 14 14
17 17 17
19 19 19
25 25 25
43 43 43
54 54 54
52 52 52
37 37 37
33 33 33
36 36 36
40 40 40
34 34 34
31 31 31
25 25 25
23 23 23
24 24 24
29 29 29
45 45 45
64 64 64
78 78 78
54 54 54
39 39 39
39 39 39
44 44 44
50 50 50
75 75 75
82 82 82
85 85 85
89 89 89
63 63 63
42 42 42
47 47 47
59 59 59
37 37 37
30 30 30
33 33 33
36 36 36
40 40 40
48 48 48
46 46 46
28 28 28
25 25 25
34 34 34
37 37 37
27 27 27
21 21 21
10 10 10
4 4 4
3 3 3
3 3 3
2 2 2
3 3 3
0 0 0
0 0 0
0 0 0
4 4 4
8 8 8
10 10 10
15 15 15
21 21 21
19 19 19
16 16 16
14 14 14
13 13 13
19 19 19
24 24 24
25 25 25
26 26 26
34 34 34
41 41 41
39 39 39
27 27 27
20 20 20
18 18 18
18 18 18
16 16 16
16 16 16
16 16 16
16 16 16
18 18 18
21 21 21
28 28 28
45 45 45
66 66 66
49 49 49
37 37 37
38 38 38
41 41 41
44 44 44
55 55 55
63 63 63
56 56 56
63 63 63
62 62 62
44 44 44
30 30 30
29 29 29
25 25 25
26 26 26
28 28 28
30 30 30
33 33 33
44 44 44
54 54 54
41 41 41
31 31 31
37 37 37
36 36 36
21 21 21
12 12 12
9 9 9
6 6 6
7 7 7
10 10 10
7 7 7
2 2 2
0 0 0
0 0 0
0 0 0
4 4 4
5 5 5
5 5 5
11 11 11
17 17 17
16 16 16
16 16 16
17 17 17
18 18 18
19 19 19
25 25 25
33 33 33
26 26 26
23 23 23
29 29 29
39 39 39
33 33 33
22 22 22
17 17 17
12 12 12
11 11 11
12 12 12
14 14 14
15 15 15
15 15 15
17 17 17
25 25 25
42 42 42
61 61 61
49 49 49
39 39 39
44 44 44
48 48 48
50 50 50
52 52 52
49 49 49
43 43 43
50 50 50
57 57 57
38 38 38
23 23 23
22 22 22
25 25 25
31 31 31
34 34 34
33 33 33
34 34 34
38 38 38
49 49 49
48 48 48
35 35 35
38 38 38
32 32 32
19 19 19
11 11 11
8 8 8
11 11 11
12 12 12
12 12 12
7 7 7
2 2 2
2 2 2
1 1 1
0 0 0
0 0 0
2 2 2
4 4 4
8 8 8
13 13 13
14 14 14
15 15 15
13 13 13
14 14 14
18 18 18
25 25 25
30 30 30
21 21 21
17 17 17
20 20 20
33 33 33
42 42 42
34 34 34
28 28 28
15 15 15
10 10 10
13 13 13
18 18 18
24 24 24
23 23 23
18 18 18
25 25 25
43 43 43
42 42 42
36 36 36
40 40 40
59 59 59
72 72 72
68 68 68
66 66 66
53 53 53
49 49 49
56 56 56
54 54 54
34 34 34
20 20 20
22 22 22
31 31 31
45 45 45
48 48 48
44 44 44
48 48 48
45 45 45
52 52 52
38 38 38
32 32 32
33 33 33
28 28 28
24 24 24
17 17 17
10 10 10
11 11 11
15 15 15
11 11 11
5 5 5
3 3 3
4 4 4
2 2 2
0 0 0
0 0 0
2 2 2
5 5 5
9 9 9
9 9 9
9 9 9
14 14 14
13 13 13
9 9 9
14 14 14
24 24 24
28 28 28
21 21 21
15 15 15
21 21 21
33 33 33
45 45 45
40 40 40
25 25 25
13 13 13
10 10 10
20 20 20
31 31 31
30 30 30
28 28 28
19 19 19
21 21 21
27 27 27
27 27 27
30 30 30
40 40 40
69 69 69
98 98 98
85 85 85
73 73 73
73 73 73
61 61 61
42 42 42
42 42 42
29 29 29
19 19 19
30 30 30
42 42 42
49 49 49
47 47 47
53 53 53
63 63 63
55 55 55
50 50 50
33 33 33
29 29 29
33 33 33
38 38 38
32 32 32
21 21 21
13 13 13
11 11 11
13 13 13
10 10 10
6 6 6
6 6 6
5 5 5
2 2 2
0 0 0
0 0 0
2 2 2
5 5 5
5 5 5
8 8 8
8 8 8
14 14 14
15 15 15
9 9 9
9 9 9
18 18 18
24 24 24
14 14 14
10 10 10
18 18 18
34 34 34
46 46 46
33 33 33
18 18 18
12 12 12
11 11 11
22 22 22
39 39 39
37 37 37
29 29 29
21 21 21
23 23 23
25 25 25
27 27 27
31 31 31
39 39 39
64 64 64
86 86 86
83 83 83
87 87 87
76 76 76
45 45 45
27 27 27
33 33 33
23 23 23
14 14 14
17 17 17
30 30 30
29 29 29
26 26 26
36 36 36
48 48 48
50 50 50
45 45 45
36 36 36
30 30 30
35 35 35
40 40 40
37 37 37
21 21 21
14 14 14
13 13 13
15 15 15
12 12 12
8 8 8
4 4 4
2 2 2
1 1 1
0 0 0
0 0 0
2 2 2
4 4 4
3 3 3
5 5 5
7 7 7
10 10 10
8 8 8
8 8 8
9 9 9
15 15 15
13 13 13
9 9 9
8 8 8
15 15 15
33 33 33
42 42 42
27 27 27
17 17 17
14 14 14
14 14 14
25 25 25
38 38 38
42 42 42
29 29 29
26 26 26
29 29 29
32 32 32
32 32 32
35 35 35
41 41 41
50 50 50
68 68 68
82 82 82
83 83 83
60 60 60
32 32 32
24 24 24
21 21 21
12 12 12
10 10 10
11 11 11
12 12 12
14 14 14
16 16 16
20 20 20
27 27 27
35 35 35
36 36 36
31 31 31
23 23 23
28 28 28
31 31 31
33 33 33
23 23 23
18 18 18
18 18 18
16 16 16
10 10 10
6 6 6
2 2 2
1 1 1
0 0 0
0 0 0
0 0 0
0 0 0
1 1 1
4 4 4
8 8 8
9 9 9
7 7 7
3 3 3
5 5 5
10 10 10
15 15 15
12 12 12
12 12 12
12 12 12
16 16 16
26 26 26
32 32 32
19 19 19
12 12 12
8 8 8
11 11 11
18 18 18
35 35 35
45 45 45
37 37 37
36 36 36
39 39 39
46 46 46
41 41 41
49 49 49
61 61 61
56 56 56
63 63 63
61 61 61
50 50 50
50 50 50
41 41 41
35 35 35
22 22 22
11 11 11
9 9 9
9 9 9
9 9 9
10 10 10
12 12 12
19 19 19
24 24 24
32 32 32
39 39 39
26 26 26
18 18 18
20 20 20
21 21 21
22 22 22
15 15 15
16 16 16
18 18 18
14 14 14
8 8 8
7 7 7
3 3 3
1 1 1
1 1 1
0 0 0
0 0 0
1 1 1
2 2 2
6 6 6
9 9 9
8 8 8
5 5 5
2 2 2
3 3 3
9 9 9
17 17 17
19 19 19
15 15 15
9 9 9
10 10 10
15 15 15
23 23 23
24 24 24
13 13 13
7 7 7
8 8 8
12 12 12
24 24 24
36 36 36
46 46 46
47 47 47
50 50 50
52 52 52
52 52 52
53 53 53
52 52 52
43 43 43
33 33 33
28 28 28
28 28 28
36 36 36
37 37 37
28 28 28
21 21 21
11 11 11
9 9 9
9 9 9
10 10 10
11 11 11
14 14 14
19 19 19
22 22 22
31 31 31
33 33 33
22 22 22
15 15 15
14 14 14
17 17 17
18 18 18
10 10 10
9 9 9
11 11 11
10 10 10
9 9 9
10 10 10
5 5 5
4 4 4
2 2 2
1 1 1
2 2 2
2 2 2
4 4 4
4 4 4
3 3 3
5 5 5
6 6 6
3 3 3
2 2 2
5 5 5
11 11 11
12 12 12
11 11 11
6 6 6
5 5 5
5 5 5
13 13 13
21 21 21
16 16 16
10 10 10
12 12 12
13 13 13
16 16 16
26 26 26
44 44 44
39 39 39
37 37 37
49 49 49
57 57 57
38 38 38
24 24 24
18 18 18
14 14 14
12 12 12
12 12 12
18 18 18
21 21 21
20 20 20
16 16 16
13 13 13
12 12 12
14 14 14
17 17 17
17 17 17
23 23 23
19 19 19
18 18 18
24 24 24
24 24 24
16 16 16
14 14 14
13 13 13
15 15 15
16 16 16
8 8 8
5 5 5
7 7 7
5 5 5
7 7 7
10 10 10
7 7 7
6 6 6
3 3 3
1 1 1
2 2 2
3 3 3
3 3 3
2 2 2
1 1 1
5 5 5
8 8 8
6 6 6
4 4 4
4 4 4
7 7 7
7 7 7
10 10 10
11 11 11
11 11 11
4 4 4
8 8 8
12 12 12
16 16 16
19 19 19
16 16 16
12 12 12
14 14 14
26 26 26
39 39 39
27 27 27
24 24 24
39 39 39
46 46 46
23 23 23
13 13 13
10 10 10
8 8 8
7 7 7
7 7 7
10 10 10
18 18 18
29 29 29
27 27 27
20 20 20
18 18 18
23 23 23
31 31 31
31 31 31
33 33 33
25 25 25
27 27 27
29 29 29
17 17 17
15 15 15
15 15 15
13 13 13
21 21 21
22 22 22
8 8 8
4 4 4
4 4 4
3 3 3
5 5 5
10 10 10
9 9 9
4 4 4
2 2 2
1 1 1
0 0 0
1 1 1
1 1 1
1 1 1
1 1 1
5 5 5
6 6 6
5 5 5
5 5 5
3 3 3
3 3 3
5 5 5
4 4 4
7 7 7
12 12 12
5 5 5
2 2 2
5 5 5
11 11 11
14 14 14
16 16 16
12 12 12
14 14 14
29 29 29
36 36 36
26 26 26
23 23 23
35 35 35
33 33 33
20 20 20
12 12 12
9 9 9
6 6 6
5 5 5
5 5 5
9 9 9
16 16 16
21 21 21
33 33 33
30 30 30
26 26 26
31 31 31
31 31 31
38 38 38
34 34 34
29 29 29
39 39 39
38 38 38
17 17 17
15 15 15
16 16 16
15 15 15
23 23 23
21 21 21
8 8 8
3 3 3
2 2 2
2 2 2
3 3 3
7 7 7
8 8 8
4 4 4
1 1 1
1 1 1
0 0 0
0 0 0
1 1 1
0 0 0
1 1 1
4 4 4
4 4 4
4 4 4
3 3 3
1 1 1
1 1 1
3 3 3
1 1 1
5 5 5
7 7 7
3 3 3
1 1 1
3 3 3
9 9 9
6 6 6
7 7 7
8 8 8
12 12 12
21 21 21
23 23 23
28 28 28
28 28 28
33 33 33
25 25 25
18 18 18
17 17 17
16 16 16
8 8 8
4 4 4
4 4 4
7 7 7
9 9 9
15 15 15
25 25 25
30 30 30
32 32 32
31 31 31
34 34 34
39 39 39
34 34 34
28 28 28
28 28 28
29 29 29
22 22 22
16 16 16
13 13 13
16 16 16
16 16 16
13 13 13
8 8 8
5 5 5
2 2 2
1 1 1
2 2 2
5 5 5
6 6 6
4 4 4
1 1 1
0 0 0
0 0 0
0 0 0
0 0 0
0 0 0
0 0 0
1 1 1
3 3 3
5 5 5
3 3 3
1 1 1
0 0 0
0 0 0
0 0 0
1 1 1
2 2 2
1 1 1
0 0 0
1 1 1
4 4 4
4 4 4
4 4 4
6 6 6
9 9 9
13 13 13
19 19 19
30 30 30
35 35 35
43 43 43
34 34 34
25 25 25
28 28 28
22 22 22
9 9 9
3 3 3
3 3 3
3 3 3
4 4 4
12 12 12
16 16 16
24 24 24
31 31 31
31 31 31
32 32 32
29 29 29
23 23 23
14 14 14
13 13 13
16 16 16
18 18 18
16 16 16
10 10 10
9 9 9
8 8 8
8 8 8
5 5 5
3 3 3
1 1 1
1 1 1
2 2 2
4 4 4
6 6 6
3 3 3
1 1 1
0 0 0
0 0 0
0 0 0
0 0 0
0 0 0
0 0 0
1 1 1
5 5 5
5 5 5
4 4 4
3 3 3
0 0 0
0 0 0
0 0 0
0 0 0
0 0 0
0 0 0
0 0 0
1 1 1
2 2 2
3 3 3
4 4 4
8 8 8
16 16 16
19 19 19
17 17 17
20 20 20
30 30 30
38 38 38
40 40 40
37 37 37
30 30 30
28 28 28
13 13 13
3 3 3
2 2 2
2 2 2
3 3 3
5 5 5
9 9 9
15 15 15
14 14 14
14 14 14
16 16 16
17 17 17
20 20 20
10 10 10
6 6 6
7 7 7
8 8 8
11 11 11
9 9 9
5 5 5
4 4 4
6 6 6
2 2 2
2 2 2
1 1 1
1 1 1
2 2 2
5 5 5
6 6 6
4 4 4
1 1 1
0 0 0
0 0 0
0 0 0
0 0 0
0 0 0
0 0 0
2 2 2
3 3 3
3 3 3
2 2 2
1 1 1
0 0 0
0 0 0
0 0 0
0 0 0
0 0 0
0 0 0
0 0 0
3 3 3
6 6 6
7 7 7
6 6 6
11 11 11
22 22 22
30 30 30
28 28 28
18 18 18
22 22 22
24 24 24
24 24 24
35 35 35
31 31 31
21 21 21
11 11 11
4 4 4
3 3 3
1 1 1
1 1 1
2 2 2
3 3 3
6 6 6
8 8 8
13 13 13
12 12 12
13 13 13
19 19 19
10 10 10
3 3 3
2 2 2
2 2 2
4 4 4
4 4 4
2 2 2
2 2 2
3 3 3
1 1 1
1 1 1
2 2 2
2 2 2
3 3 3
5 5 5
5 5 5
4 4 4
2 2 2
1 1 1
0 0 0
0 0 0
0 0 0
1 1 1
1 1 1
2 2 2
3 3 3
1 1 1
2 2 2
1 1 1
0 0 0
0 0 0
0 0 0
0 0 0
0 0 0
0 0 0
3 3 3
10 10 10
12 12 12
13 13 13
12 12 12
12 12 12
19 19 19
27 27 27
25 25 25
19 19 19
24 24 24
23 23 23
16 16 16
23 23 23
28 28 28
20 20 20
8 8 8
7 7 7
9 9 9
3 3 3
1 1 1
4 4 4
2 2 2
3 3 3
6 6 6
15 15 15
14 14 14
13 13 13
18 18 18
9 9 9
2 2 2
1 1 1
2 2 2
1 1 1
1 1 1
0 0 0
1 1 1
1 1 1
1 1 1
3 3 3
4 4 4
4 4 4
4 4 4
4 4 4
3 3 3
3 3 3
2 2 2
0 0 0
0 0 0
0 0 0
0 0 0
1 1 1
0 0 0
1 1 1
1 1 1
2 2 2
3 3 3
1 1 1
0 0 0
0 0 0
0 0 0
0 0 0
0 0 0
2 2 2
5 5 5
7 7 7
11 11 11
16 16 16
15 15 15
14 14 14
19 19 19
23 23 23
21 21 21
23 23 23
30 30 30
26 26 26
16 16 16
14 14 14
18 18 18
20 20 20
13 13 13
14 14 14
16 16 16
7 7 7
5 5 5
6 6 6
3 3 3
2 2 2
5 5 5
8 8 8
14 14 14
14 14 14
18 18 18
12 12 12
5 5 5
3 3 3
5 5 5
3 3 3
0 0 0
0 0 0
0 0 0
0 0 0
1 1 1
4 4 4
5 5 5
3 3 3
2 2 2
1 1 1
2 2 2
3 3 3
2 2 2
0 0 0
0 0 0
0 0 0
0 0 0
0 0 0
0 0 0
1 1 1
0 0 0
1 1 1
1 1 1
1 1 1
0 0 0
0 0 0
1 1 1
1 1 1
0 0 0
2 2 2
4 4 4
4 4 4
6 6 6
11 11 11
14 14 14
13 13 13
17 17 17
16 16 16
16 16 16
20 20 20
25 25 25
25 25 25
16 16 16
10 10 10
6 6 6
7 7 7
10 10 10
11 11 11
15 15 15
13 13 13
11 11 11
6 6 6
1 1 1
3 3 3
7 7 7
8 8 8
9 9 9
8 8 8
10 10 10
14 14 14
7 7 7
5 5 5
6 6 6
2 2 2
0 0 0
0 0 0
0 0 0
0 0 0
0 0 0
3 3 3
3 3 3
2 2 2
0 0 0
0 0 0
1 1 1
1 1 1
1 1 1
0 0 0
0 0 0
0 0 0
0 0 0
0 0 0
1 1 1
0 0 0
0 0 0
0 0 0
0 0 0
0 0 0
0 0 0
0 0 0
2 2 2
3 3 3
3 3 3
3 3 3
5 5 5
5 5 5
7 7 7
11 11 11
10 10 10
7 7 7
8 8 8
10 10 10
12 12 12
12 12 12
16 16 16
18 18 18
13 13 13
10 10 10
4 4 4
3 3 3
5 5 5
5 5 5
9 9 9
9 9 9
10 10 10
6 6 6
3 3 3
6 6 6
8 8 8
6 6 6
3 3 3
2 2 2
7 7 7
9 9 9
7 7 7
5 5 5
5 5 5
3 3 3
1 1 1
1 1 1
0 0 0
0 0 0
1 1 1
1 1 1
1 1 1
0 0 0
1 1 1
1 1 1
1 1 1
1 1 1
0 0 0
0 0 0
0 0 0
0 0 0
0 0 0
0 0 0
0 0 0
0 0 0
0 0 0
0 0 0
0 0 0
0 0 0
0 0 0
0 0 0
2 2 2
4 4 4
4 4 4
5 5 5
6 6 6
6 6 6
6 6 6
5 5 5
4 4 4
3 3 3
4 4 4
9 9 9
8 8 8
7 7 7
10 10 10
8 8 8
7 7 7
6 6 6
4 4 4
1 1 1
1 1 1
2 2 2
6 6 6
5 5 5
4 4 4
5 5 5
2 2 2
4 4 4
6 6 6
2 2 2
0 0 0
0 0 0
2 2 2
3 3 3
4 4 4
5 5 5
2 2 2
1 1 1
1 1 1
1 1 1
0 0 0
0 0 0
1 1 1
1 1 1
0 0 0
0 0 0
0 0 0
1 1 1
1 1 1
0 0 0
0 0 0
0 0 0
0 0 0
0 0 0
0 0 0
0 0 0
0 0 0
0 0 0
0 0 0
0 0 0
0 0 0
0 0 0
0 0 0
0 0 0
2 2 2
2 2 2
2 2 2
3 3 3
4 4 4
3 3 3
4 4 4
4 4 4
1 1 1
0 0 0
3 3 3
5 5 5
4 4 4
4 4 4
7 7 7
4 4 4
2 2 2
1 1 1
1 1 1
0 0 0
0 0 0
1 1 1
5 5 5
3 3 3
2 2 2
4 4 4
3 3 3
0 0 0
1 1 1
0 0 0
0 0 0
0 0 0
1 1 1
1 1 1
3 3 3
2 2 2
2 2 2
0 0 0
0 0 0
0 0 0
0 0 0
0 0 0
0 0 0
0 0 0
0 0 0
0 0 0
0 0 0
0 0 0
0 0 0
0 0 0
0 0 0
0 0 0
0 0 0
0 0 0
0 0 0
0 0 0
0 0 0
0 0 0
0 0 0
0 0 0
0 0 0
0 0 0
0 0 0
1 1 1
1 1 1
1 1 1
1 1 1
2 2 2
1 1 1
1 1 1
2 2 2
3 3 3
0 0 0
0 0 0
1 1 1
2 2 2
1 1 1
2 2 2
6 6 6
5 5 5
2 2 2
0 0 0
0 0 0
0 0 0
0 0 0
0 0 0
1 1 1
0 0 0
0 0 0
0 0 0
0 0 0
0 0 0
0 0 0
0 0 0
0 0 0
0 0 0
0 0 0
0 0 0
2 2 2
0 0 0
0 0 0
0 0 0
0 0 0
0 0 0
0 0 0
0 0 0
0 0 0
0 0 0
0 0 0
0 0 0
0 0 0
0 0 0
0 0 0
0 0 0
0 0 0
0 0 0
0 0 0
0 0 0
0 0 0
0 0 0
0 0 0
0 0 0
0 0 0
0 0 0
0 0 0
0 0 0
0 0 0
0 0 0
0 0 0
0 0 0
0 0 0
0 0 0
0 0 0
0 0 0
0 0 0
0 0 0
0 0 0
0 0 0
0 0 0
0 0 0
0 0 0
1 1 1
1 1 1
2 2 2
1 1 1
0 0 0
0 0 0
0 0 0
0 0 0
0 0 0
0 0 0
0 0 0
0 0 0
0 0 0
0 0 0
0 0 0
0 0 0
0 0 0
0 0 0
0 0 0
0 0 0
0 0 0
0 0 0
0 0 0
0 0 0
0 0 0
0 0 0
0 0 0
0 0 0
0 0 0
0 0 0
0 0 0
0 0 0
0 0 0
0 0 0
0 0 0
0 0 0
0 0 0
0 0 0
0 0 0
