P3
20 20
255
0   0   0   0   0   0   0   0   0   0   0   0   0   0   0   1   1   1   3   3   3   7   7   7   14  14  14  17  17  17  17  17  17  14  14  14  7   7   7   3   3   3   1   1   1   0   0   0   0   0   0   0   0   0   0   0   0   0   0   0   
0   0   0   0   0   0   0   0   0   0   0   0   2   2   2   12  12  12  26  26  26  37  37  37  46  46  46  50  50  50  50  50  50  46  46  46  37  37  37  26  26  26  12  12  12  2   2   2   0   0   0   0   0   0   0   0   0   0   0   0   
0   0   0   0   0   0   0   0   0   5   5   5   24  24  24  42  42  42  59  59  59  71  71  71  80  80  80  84  84  84  84  84  84  80  80  80  71  71  71  59  59  59  42  42  42  24  24  24  5   5   5   0   0   0   0   0   0   0   0   0   
0   0   0   0   0   0   5   5   5   25  25  25  50  50  50  71  71  71  88  88  88  103 103 103 114 114 114 118 118 118 118 118 118 114 114 114 103 103 103 88  88  88  71  71  71  50  50  50  25  25  25  5   5   5   0   0   0   0   0   0   
0   0   0   2   2   2   24  24  24  50  50  50  76  76  76  97  97  97  116 116 116 133 133 133 146 146 146 152 152 152 152 152 152 146 146 146 133 133 133 116 116 116 97  97  97  76  76  76  50  50  50  24  24  24  2   2   2   0   0   0   
1   1   1   12  12  12  42  42  42  71  71  71  97  97  97  120 120 120 144 144 144 162 162 162 177 177 177 185 185 185 185 185 185 177 177 177 162 162 162 144 144 144 120 120 120 97  97  97  71  71  71  42  42  42  12  12  12  1   1   1   
3   3   3   26  26  26  59  59  59  88  88  88  116 116 116 144 144 144 169 169 169 191 191 191 207 207 207 214 214 214 214 214 214 207 207 207 191 191 191 169 169 169 144 144 144 116 116 116 88  88  88  59  59  59  26  26  26  3   3   3   
7   7   7   37  37  37  71  71  71  103 103 103 133 133 133 162 162 162 191 191 191 216 216 216 230 230 230 236 236 236 236 236 236 230 230 230 216 216 216 191 191 191 162 162 162 133 133 133 103 103 103 71  71  71  37  37  37  7   7   7   
14  14  14  46  46  46  80  80  80  114 114 114 146 146 146 177 177 177 207 207 207 230 230 230 245 245 245 253 253 253 253 253 253 245 245 245 230 230 230 207 207 207 177 177 177 146 146 146 114 114 114 80  80  80  46  46  46  14  14  14  
17  17  17  50  50  50  84  84  84  118 118 118 152 152 152 185 185 185 214 214 214 236 236 236 253 253 253 255 255 255 255 255 255 253 253 253 236 236 236 214 214 214 185 185 185 152 152 152 118 118 118 84  84  84  50  50  50  17  17  17  
17  17  17  50  50  50  84  84  84  118 118 118 152 152 152 185 185 185 214 214 214 236 236 236 253 253 253 255 255 255 255 255 255 253 253 253 236 236 236 214 214 214 185 185 185 152 152 152 118 118 118 84  84  84  50  50  50  17  17  17  
14  14  14  46  46  46  80  80  80  114 114 114 146 146 146 177 177 177 207 207 207 230 230 230 245 245 245 253 253 253 253 253 253 245 245 245 230 230 230 207 207 207 177 177 177 146 146 146 114 114 114 80  80  80  46  46  46  14  14  14  
7   7   7   37  37  37  71  71  71  103 103 103 133 133 133 162 162 162 191 191 191 216 216 216 230 230 230 236 236 236 236 236 236 230 230 230 216 216 216 191 191 191 162 162 162 133 133 133 103 103 103 71  71  71  37  37  37  7   7   7   
3   3   3   26  26  26  59  59  59  88  88  88  116 116 116 144 144 144 169 169 169 191 191 191 207 207 207 214 214 214 214 214 214 207 207 207 191 191 191 169 169 169 144 144 144 116 116 116 88  88  88  59  59  59  26  26  26  3   3   3   
1   1   1   12  12  12  42  42  42  71  71  71  97  97  97  120 120 120 144 144 144 162 162 162 177 177 177 185 185 185 185 185 185 177 177 177 162 162 162 144 144 144 120 120 120 97  97  97  71  71  71  42  42  42  12  12  12  1   1   1   
0   0   0   2   2   2   24  24  24  50  50  50  76  76  76  97  97  97  116 116 116 133 133 133 146 146 146 152 152 152 152 152 152 146 146 146 133 133 133 116 116 116 97  97  97  76  76  76  50  50  50  24  24  24  2   2   2   0   0   0   
0   0   0   0   0   0   5   5   5   25  25  25  50  50  50  71  71  71  88  88  88  103 103 103 114 114 114 118 118 118 118 118 118 114 114 114 103 103 103 88  88  88  71  71  71  50  50  50  25  25  25  5   5   5   0   0   0   0   0   0   
0   0   0   0   0   0   0   0   0   5   5   5   24  24  24  42  42  42  59  59  59  71  71  71  80  80  80  84  84  84  84  84  84  80  80  80  71  71  71  59  59  59  42  42  42  24  24  24  5   5   5   0   0   0   0   0   0   0   0   0   
0   0   0   0   0   0   0   0   0   0   0   0   2   2   2   12  12  12  26  26  26  37  37  37  46  46  46  50  50  50  50  50  50  46  46  46  37  37  37  26  26  26  12  12  12  2   2   2   0   0   0   0   0   0   0   0   0   0   0   0   
0   0   0   0   0   0   0   0   0   0   0   0   0   0   0   1   1   1   3   3   3   7   7   7   14  14  14  17  17  17  17  17  17  14  14  14  7   7   7   3   3   3   1   1   1   0   0   0   0   0   0   0   0   0   0   0   0   0   0   0   
