P3
30 30
255
0 0 0
0 0 0
0 0 0
0 0 0
0 0 0
1 1 1
1 1 1
2 2 2
2 2 2
3 3 3
3 3 3
3 3 3
3 3 3
3 3 3
3 3 3
3 3 3
3 3 3
3 3 3
4 4 4
4 4 4
3 3 3
3 3 3
2 2 2
1 1 1
1 1 1
1 1 1
0 0 0
0 0 0
0 0 0
0 0 0
0 0 0
0 0 0
0 0 0
0 0 0
1 1 1
1 1 1
2 2 2
3 3 3
3 3 3
3 3 3
4 4 4
4 4 4
4 4 4
5 5 5
5 5 5
5 5 5
5 5 5
5 5 5
5 5 5
6 6 6
5 5 5
5 5 5
4 4 4
2 2 2
2 2 2
1 1 1
1 1 1
1 1 1
0 0 0
0 0 0
0 0 0
0 0 0
1 1 1
1 1 1
1 1 1
2 2 2
3 3 3
4 4 4
4 4 4
5 5 5
6 6 6
6 6 6
6 6 6
7 7 7
7 7 7
7 7 7
7 7 7
7 7 7
8 8 8
8 8 8
7 7 7
7 7 7
6 6 6
4 4 4
3 3 3
3 3 3
2 2 2
1 1 1
1 1 1
0 0 0
0 0 0
0 0 0
1 1 1
2 2 2
2 2 2
3 3 3
5 5 5
5 5 5
5 5 5
6 6 6
8 8 8
10 10 10
9 9 9
10 10 10
12 12 12
10 10 10
11 11 11
10 10 10
10 10 10
11 11 11
10 10 10
9 9 9
8 8 8
6 6 6
5 5 5
4 4 4
3 3 3
2 2 2
2 2 2
1 1 1
0 0 0
1 1 1
2 2 2
3 3 3
3 3 3
5 5 5
6 6 6
7 7 7
7 7 7
8 8 8
10 10 10
14 14 14
14 14 14
15 15 15
16 16 16
14 14 14
15 15 15
15 15 15
14 14 14
14 14 14
13 13 13
13 13 13
11 11 11
9 9 9
7 7 7
6 6 6
5 5 5
4 4 4
3 3 3
1 1 1
1 1 1
2 2 2
3 3 3
4 4 4
5 5 5
7 7 7
9 9 9
9 9 9
9 9 9
11 11 11
14 14 14
18 18 18
19 19 19
19 19 19
20 20 20
19 19 19
19 19 19
21 21 21
22 22 22
19 19 19
20 20 20
19 19 19
17 17 17
12 12 12
10 10 10
8 8 8
6 6 6
5 5 5
4 4 4
2 2 2
2 2 2
3 3 3
4 4 4
5 5 5
7 7 7
10 10 10
12 12 12
12 12 12
13 13 13
16 16 16
20 20 20
24 24 24
26 26 26
23 23 23
27 27 27
26 26 26
26 26 26
29 29 29
29 29 29
28 28 28
25 25 25
23 23 23
20 20 20
16 16 16
14 14 14
10 10 10
8 8 8
7 7 7
5 5 5
3 3 3
2 2 2
3 3 3
5 5 5
7 7 7
9 9 9
12 12 12
16 16 16
17 17 17
18 18 18
21 21 21
30 30 30
32 32 32
35 35 35
35 35 35
33 33 33
34 34 34
32 32 32
35 35 35
38 38 38
38 38 38
34 34 34
31 31 31
27 27 27
22 22 22
17 17 17
13 13 13
11 11 11
8 8 8
5 5 5
4 4 4
3 3 3
4 4 4
6 6 6
9 9 9
12 12 12
15 15 15
19 19 19
23 23 23
26 26 26
32 32 32
37 37 37
40 40 40
48 48 48
54 54 54
49 49 49
41 41 41
41 41 41
41 41 41
47 47 47
45 45 45
44 44 44
39 39 39
33 33 33
29 29 29
21 21 21
16 16 16
14 14 14
10 10 10
7 7 7
4 4 4
4 4 4
6 6 6
8 8 8
11 11 11
14 14 14
19 19 19
24 24 24
30 30 30
38 38 38
41 41 41
45 45 45
51 51 51
62 62 62
70 70 70
67 67 67
58 58 58
52 52 52
55 55 55
54 54 54
55 55 55
53 53 53
46 46 46
37 37 37
32 32 32
27 27 27
19 19 19
16 16 16
12 12 12
8 8 8
5 5 5
5 5 5
7 7 7
10 10 10
13 13 13
17 17 17
24 24 24
31 31 31
40 40 40
47 47 47
50 50 50
52 52 52
65 65 65
77 77 77
84 84 84
82 82 82
73 73 73
63 63 63
64 64 64
65 65 65
60 60 60
64 64 64
55 55 55
42 42 42
36 36 36
30 30 30
24 24 24
20 20 20
15 15 15
9 9 9
5 5 5
5 5 5
9 9 9
13 13 13
16 16 16
20 20 20
28 28 28
33 33 33
44 44 44
54 54 54
60 60 60
69 69 69
80 80 80
89 89 89
94 94 94
85 85 85
77 77 77
75 75 75
72 72 72
74 74 74
71 71 71
70 70 70
60 60 60
50 50 50
42 42 42
34 34 34
31 31 31
25 25 25
17 17 17
10 10 10
5 5 5
6 6 6
10 10 10
14 14 14
17 17 17
23 23 23
31 31 31
40 40 40
52 52 52
66 66 66
76 76 76
86 86 86
90 90 90
91 91 91
98 98 98
91 91 91
84 84 84
84 84 84
85 85 85
79 79 79
83 83 83
82 82 82
69 69 69
60 60 60
50 50 50
39 39 39
35 35 35
28 28 28
19 19 19
11 11 11
7 7 7
7 7 7
11 11 11
15 15 15
20 20 20
26 26 26
34 34 34
46 46 46
60 60 60
75 75 75
91 91 91
100 100 100
101 101 101
102 102 102
106 106 106
100 100 100
105 105 105
90 90 90
88 88 88
84 84 84
89 89 89
87 87 87
77 77 77
64 64 64
55 55 55
45 45 45
39 39 39
28 28 28
18 18 18
11 11 11
7 7 7
7 7 7
11 11 11
16 16 16
21 21 21
28 28 28
36 36 36
47 47 47
64 64 64
84 84 84
97 97 97
112 112 112
119 119 119
118 118 118
127 127 127
127 127 127
116 116 116
104 104 104
97 97 97
90 90 90
91 91 91
88 88 88
76 76 76
66 66 66
52 52 52
46 46 46
39 39 39
28 28 28
17 17 17
11 11 11
7 7 7
7 7 7
11 11 11
15 15 15
20 20 20
28 28 28
36 36 36
49 49 49
68 68 68
88 88 88
101 101 101
118 118 118
137 137 137
133 133 133
147 147 147
144 144 144
128 128 128
121 121 121
113 113 113
101 101 101
91 91 91
84 84 84
70 70 70
56 56 56
53 53 53
47 47 47
38 38 38
25 25 25
16 16 16
10 10 10
7 7 7
7 7 7
10 10 10
14 14 14
19 19 19
25 25 25
32 32 32
44 44 44
65 65 65
85 85 85
100 100 100
118 118 118
138 138 138
146 146 146
150 150 150
145 145 145
131 131 131
126 126 126
118 118 118
103 103 103
82 82 82
70 70 70
57 57 57
52 52 52
48 48 48
44 44 44
34 34 34
24 24 24
16 16 16
9 9 9
6 6 6
6 6 6
8 8 8
12 12 12
17 17 17
22 22 22
29 29 29
41 41 41
58 58 58
79 79 79
89 89 89
106 106 106
123 123 123
133 133 133
139 139 139
135 135 135
131 131 131
121 121 121
110 110 110
94 94 94
76 76 76
68 68 68
52 52 52
49 49 49
44 44 44
39 39 39
31 31 31
22 22 22
15 15 15
8 8 8
5 5 5
4 4 4
6 6 6
9 9 9
14 14 14
19 19 19
27 27 27
40 40 40
52 52 52
70 70 70
81 81 81
86 86 86
114 114 114
129 129 129
132 132 132
126 126 126
123 123 123
113 113 113
107 107 107
95 95 95
76 76 76
58 58 58
50 50 50
43 43 43
38 38 38
34 34 34
29 29 29
20 20 20
13 13 13
7 7 7
4 4 4
3 3 3
5 5 5
7 7 7
11 11 11
15 15 15
23 23 23
33 33 33
49 49 49
62 62 62
73 73 73
82 82 82
98 98 98
116 116 116
122 122 122
116 116 116
117 117 117
107 107 107
102 102 102
84 84 84
72 72 72
56 56 56
47 47 47
36 36 36
33 33 33
29 29 29
24 24 24
15 15 15
10 10 10
7 7 7
4 4 4
2 2 2
4 4 4
6 6 6
9 9 9
12 12 12
20 20 20
28 28 28
40 40 40
52 52 52
66 66 66
76 76 76
88 88 88
100 100 100
111 111 111
108 108 108
108 108 108
100 100 100
90 90 90
80 80 80
67 67 67
54 54 54
46 46 46
36 36 36
27 27 27
22 22 22
17 17 17
10 10 10
7 7 7
5 5 5
3 3 3
2 2 2
3 3 3
5 5 5
8 8 8
12 12 12
17 17 17
25 25 25
34 34 34
44 44 44
57 57 57
70 70 70
83 83 83
87 87 87
96 96 96
97 97 97
90 90 90
79 79 79
78 78 78
74 74 74
62 62 62
51 51 51
42 42 42
32 32 32
24 24 24
19 19 19
12 12 12
8 8 8
5 5 5
4 4 4
2 2 2
1 1 1
3 3 3
4 4 4
6 6 6
11 11 11
16 16 16
21 21 21
29 29 29
37 37 37
49 49 49
58 58 58
66 66 66
72 72 72
80 80 80
78 78 78
73 73 73
68 68 68
71 71 71
65 65 65
58 58 58
49 49 49
36 36 36
28 28 28
22 22 22
15 15 15
10 10 10
6 6 6
4 4 4
3 3 3
2 2 2
1 1 1
2 2 2
3 3 3
5 5 5
9 9 9
13 13 13
18 18 18
26 26 26
32 32 32
40 40 40
48 48 48
52 52 52
55 55 55
58 58 58
59 59 59
58 58 58
59 59 59
60 60 60
54 54 54
47 47 47
41 41 41
32 32 32
25 25 25
19 19 19
13 13 13
7 7 7
5 5 5
3 3 3
2 2 2
1 1 1
1 1 1
1 1 1
2 2 2
4 4 4
6 6 6
10 10 10
14 14 14
19 19 19
26 26 26
32 32 32
38 38 38
42 42 42
44 44 44
42 42 42
45 45 45
49 49 49
53 53 53
53 53 53
47 47 47
40 40 40
34 34 34
28 28 28
22 22 22
15 15 15
10 10 10
7 7 7
4 4 4
3 3 3
1 1 1
0 0 0
0 0 0
1 1 1
1 1 1
3 3 3
5 5 5
7 7 7
10 10 10
13 13 13
18 18 18
23 23 23
28 28 28
32 32 32
36 36 36
35 35 35
36 36 36
40 40 40
43 43 43
43 43 43
40 40 40
34 34 34
27 27 27
23 23 23
18 18 18
13 13 13
8 8 8
5 5 5
3 3 3
2 2 2
1 1 1
0 0 0
0 0 0
0 0 0
1 1 1
2 2 2
3 3 3
5 5 5
7 7 7
9 9 9
12 12 12
16 16 16
19 19 19
23 23 23
27 27 27
27 27 27
28 28 28
31 31 31
34 34 34
33 33 33
30 30 30
27 27 27
21 21 21
18 18 18
14 14 14
10 10 10
6 6 6
4 4 4
2 2 2
1 1 1
0 0 0
0 0 0
0 0 0
0 0 0
1 1 1
1 1 1
2 2 2
3 3 3
5 5 5
6 6 6
8 8 8
10 10 10
12 12 12
15 15 15
18 18 18
20 20 20
22 22 22
24 24 24
25 25 25
24 24 24
23 23 23
20 20 20
16 16 16
13 13 13
10 10 10
7 7 7
5 5 5
3 3 3
2 2 2
1 1 1
0 0 0
0 0 0
0 0 0
0 0 0
0 0 0
1 1 1
1 1 1
2 2 2
3 3 3
4 4 4
5 5 5
7 7 7
8 8 8
10 10 10
12 12 12
13 13 13
14 14 14
16 16 16
17 17 17
17 17 17
17 17 17
14 14 14
12 12 12
9 9 9
7 7 7
5 5 5
4 4 4
2 2 2
1 1 1
1 1 1
0 0 0
0 0 0
0 0 0
0 0 0
0 0 0
0 0 0
1 1 1
1 1 1
2 2 2
3 3 3
3 3 3
4 4 4
5 5 5
7 7 7
8 8 8
9 9 9
9 9 9
10 10 10
11 11 11
11 11 11
12 12 12
10 10 10
8 8 8
6 6 6
5 5 5
4 4 4
3 3 3
2 2 2
1 1 1
0 0 0
0 0 0
0 0 0
