P3
40 40
255
3   3   3   2   2   2   1   1   1   1   1   1   2   2   2   3   3   3   2   2   2   1   1   1   1   1   1   4   4   4   4   4   4   2   2   2   1   1   1   3   3   3   3   3   3   1   1   1   2   2   2   5   5   5   2   2   2   4   4   4   4   4   4   2   2   2   6   6   6   3   3   3   0   0   0   5   5   5   2   2   2   0   0   0   6   6   6   4   4   4   1   1   1   5   5   5   2   2   2   2   2   2   2   2   2   2   2   2   2   2   2   2   2   2   2   2   2   3   3   3   
3   3   3   2   2   2   1   1   1   2   2   2   3   3   3   3   3   3   3   3   3   2   2   2   2   2   2   3   3   3   4   4   4   3   3   3   3   3   3   4   4   4   4   4   4   4   4   4   2   2   2   4   4   4   1   1   1   3   3   3   2   2   2   0   0   0   3   3   3   0   0   0   2   2   2   5   5   5   2   2   2   0   0   0   4   4   4   3   3   3   0   0   0   4   4   4   2   2   2   2   2   2   2   2   2   2   2   2   2   2   2   2   2   2   2   2   2   3   3   3   
2   2   2   2   2   2   2   2   2   3   3   3   3   3   3   4   4   4   3   3   3   2   2   2   2   2   2   2   2   2   3   3   3   3   3   3   3   3   3   2   2   2   3   3   3   4   4   4   4   4   4   5   5   5   2   2   2   6   6   6   7   7   7   4   4   4   6   6   6   3   3   3   2   2   2   5   5   5   3   3   3   1   1   1   4   4   4   3   3   3   1   1   1   4   4   4   3   3   3   3   3   3   2   2   2   2   2   2   2   2   2   2   2   2   2   2   2   3   3   3   
2   2   2   2   2   2   2   2   2   3   3   3   3   3   3   3   3   3   2   2   2   2   2   2   5   5   5   3   3   3   3   3   3   4   4   4   4   4   4   3   3   3   4   4   4   7   7   7   5   5   5   6   6   6   3   3   3   7   7   7   9   9   9   6   6   6   8   8   8   5   5   5   5   5   5   5   5   5   5   5   5   4   4   4   5   5   5   4   4   4   3   3   3   3   3   3   3   3   3   3   3   3   3   3   3   2   2   2   2   2   2   2   2   2   3   3   3   3   3   3   
2   2   2   2   2   2   2   2   2   2   2   2   2   2   2   2   2   2   2   2   2   2   2   2   5   5   5   4   4   4   4   4   4   6   6   6   7   7   7   9   9   9   12  12  12  16  16  16  17  17  17  17  17  17  13  13  13  17  17  17  19  19  19  15  15  15  18  18  18  16  16  16  16  16  16  11  11  11  8   8   8   6   6   6   4   4   4   5   5   5   4   4   4   2   2   2   4   4   4   3   3   3   3   3   3   3   3   3   2   2   2   2   2   2   3   3   3   3   3   3   
2   2   2   3   3   3   3   3   3   2   2   2   2   2   2   2   2   2   3   3   3   4   4   4   3   3   3   5   5   5   6   6   6   8   8   8   14  14  14  22  22  22  29  29  29  32  32  32  32  32  32  32  32  32  28  28  28  33  33  33  34  34  34  31  31  31  37  37  37  39  39  39  34  34  34  23  23  23  15  15  15  10  10  10  6   6   6   8   8   8   8   8   8   4   4   4   4   4   4   4   4   4   3   3   3   3   3   3   3   3   3   3   3   3   3   3   3   3   3   3   
2   2   2   3   3   3   3   3   3   2   2   2   2   2   2   3   3   3   5   5   5   7   7   7   7   7   7   12  12  12  16  16  16  17  17  17  26  26  26  41  41  41  52  52  52  55  55  55  50  50  50  49  49  49  44  44  44  47  47  47  46  46  46  42  42  42  49  49  49  53  53  53  48  48  48  34  34  34  26  26  26  22  22  22  17  17  17  18  18  18  16  16  16  7   7   7   4   4   4   4   4   4   4   4   4   3   3   3   3   3   3   3   3   3   3   3   3   3   3   3   
2   2   2   3   3   3   3   3   3   3   3   3   3   3   3   4   4   4   7   7   7   10  10  10  17  17  17  24  24  24  28  28  28  29  29  29  40  40  40  59  59  59  71  71  71  74  74  74  78  78  78  76  76  76  68  68  68  66  66  66  60  60  60  52  52  52  58  58  58  62  62  62  53  53  53  41  41  41  35  35  35  35  35  35  31  31  31  29  29  29  23  23  23  9   9   9   5   5   5   4   4   4   4   4   4   3   3   3   3   3   3   3   3   3   3   3   3   3   3   3   
4   4   4   4   4   4   3   3   3   3   3   3   3   3   3   4   4   4   11  11  11  17  17  17  30  30  30  38  38  38  44  44  44  46  46  46  58  58  58  66  66  66  90  90  90  96  96  96  98  98  98  97  97  97  89  89  89  81  81  81  78  78  78  75  75  75  70  70  70  66  66  66  61  61  61  54  54  54  47  47  47  50  50  50  45  45  45  34  34  34  27  27  27  15  15  15  17  17  17  8   8   8   4   4   4   3   3   3   1   1   1   3   3   3   5   5   5   3   3   3   
3   3   3   2   2   2   2   2   2   2   2   2   6   6   6   11  11  11  15  15  15  18  18  18  36  36  36  45  45  45  54  54  54  65  65  65  85  85  85  96  96  96  114 114 114 114 114 114 105 105 105 106 106 106 105 105 105 102 102 102 102 102 102 103 103 103 98  98  98  91  91  91  77  77  77  75  75  75  73  73  73  74  74  74  60  60  60  42  42  42  39  39  39  37  37  37  21  21  21  13  13  13  8   8   8   6   6   6   2   2   2   2   2   2   3   3   3   2   2   2   
4   4   4   4   4   4   2   2   2   4   4   4   12  12  12  23  23  23  28  28  28  27  27  27  38  38  38  46  46  46  59  59  59  80  80  80  112 112 112 126 126 126 136 136 136 126 126 126 112 112 112 109 109 109 109 109 109 110 110 110 111 111 111 116 116 116 120 120 120 118 118 118 110 110 110 106 106 106 96  96  96  87  87  87  73  73  73  61  61  61  57  57  57  47  47  47  24  24  24  16  16  16  11  11  11  8   8   8   3   3   3   2   2   2   4   4   4   3   3   3   
3   3   3   4   4   4   3   3   3   4   4   4   15  15  15  32  32  32  43  43  43  44  44  44  43  43  43  49  49  49  62  62  62  87  87  87  125 125 125 141 141 141 144 144 144 126 126 126 110 110 110 102 102 102 104 104 104 109 109 109 107 107 107 110 110 110 124 124 124 136 136 136 145 145 145 144 144 144 122 122 122 96  96  96  82  82  82  83  83  83  77  77  77  51  51  51  35  35  35  25  25  25  17  17  17  11  11  11  4   4   4   2   2   2   4   4   4   3   3   3   
1   1   1   3   3   3   3   3   3   2   2   2   13  13  13  34  34  34  52  52  52  60  60  60  59  59  59  64  64  64  74  74  74  95  95  95  128 128 128 140 140 140 140 140 140 119 119 119 100 100 100 94  94  94  100 100 100 114 114 114 113 113 113 109 109 109 126 126 126 151 151 151 172 172 172 174 174 174 153 153 153 122 122 122 104 104 104 102 102 102 92  92  92  63  63  63  48  48  48  35  35  35  24  24  24  15  15  15  5   5   5   2   2   2   3   3   3   2   2   2   
1   1   1   4   4   4   4   4   4   3   3   3   11  11  11  31  31  31  53  53  53  67  67  67  72  72  72  80  80  80  89  89  89  100 100 100 121 121 121 127 127 127 126 126 126 109 109 109 93  93  93  89  89  89  95  95  95  114 114 114 123 123 123 119 119 119 138 138 138 173 173 173 194 194 194 190 190 190 176 176 176 160 160 160 143 143 143 124 124 124 98  98  98  65  65  65  46  46  46  32  32  32  20  20  20  12  12  12  4   4   4   3   3   3   4   4   4   3   3   3   
2   2   2   4   4   4   5   5   5   4   4   4   9   9   9   24  24  24  47  47  47  64  64  64  77  77  77  90  90  90  101 101 101 104 104 104 114 114 114 114 114 114 116 116 116 103 103 103 90  90  90  90  90  90  93  93  93  114 114 114 137 137 137 140 140 140 154 154 154 188 188 188 211 211 211 211 211 211 206 206 206 200 200 200 180 180 180 145 145 145 103 103 103 61  61  61  38  38  38  24  24  24  13  13  13  7   7   7   3   3   3   4   4   4   5   5   5   3   3   3   
2   2   2   3   3   3   3   3   3   4   4   4   6   6   6   17  17  17  38  38  38  55  55  55  79  79  79  97  97  97  111 111 111 111 111 111 115 115 115 111 111 111 116 116 116 107 107 107 88  88  88  94  94  94  99  99  99  123 123 123 157 157 157 162 162 162 165 165 165 190 190 190 220 220 220 238 238 238 245 245 245 232 232 232 199 199 199 156 156 156 110 110 110 64  64  64  38  38  38  24  24  24  13  13  13  8   8   8   5   5   5   5   5   5   4   4   4   1   1   1   
2   2   2   3   3   3   3   3   3   5   5   5   9   9   9   12  12  12  26  26  26  45  45  45  68  68  68  93  93  93  105 105 105 100 100 100 102 102 102 111 111 111 111 111 111 105 105 105 92  92  92  96  96  96  102 102 102 133 133 133 152 152 152 154 154 154 185 185 185 218 218 218 242 242 242 251 251 251 242 242 242 218 218 218 177 177 177 147 147 147 94  94  94  47  47  47  25  25  25  16  16  16  12  12  12  10  10  10  5   5   5   3   3   3   4   4   4   3   3   3   
5   5   5   2   2   2   1   1   1   10  10  10  22  22  22  28  28  28  39  39  39  55  55  55  73  73  73  87  87  87  90  90  90  86  86  86  88  88  88  96  96  96  102 102 102 105 105 105 95  95  95  99  99  99  109 109 109 123 123 123 135 135 135 161 161 161 201 201 201 222 222 222 236 236 236 226 226 226 208 208 208 181 181 181 144 144 144 117 117 117 83  83  83  51  51  51  32  32  32  23  23  23  18  18  18  15  15  15  8   8   8   4   4   4   3   3   3   1   1   1   
4   4   4   1   1   1   5   5   5   21  21  21  39  39  39  48  48  48  62  62  62  81  81  81  96  96  96  99  99  99  96  96  96  91  91  91  88  88  88  87  87  87  91  91  91  98  98  98  90  90  90  96  96  96  119 119 119 126 126 126 128 128 128 157 157 157 185 185 185 191 191 191 196 196 196 179 179 179 171 171 171 163 163 163 155 155 155 144 144 144 118 118 118 79  79  79  45  45  45  35  35  35  29  29  29  24  24  24  14  14  14  6   6   6   3   3   3   1   1   1   
1   1   1   4   4   4   13  13  13  29  29  29  44  44  44  53  53  53  75  75  75  102 102 102 117 117 117 123 123 123 122 122 122 114 114 114 103 103 103 92  92  92  87  87  87  92  92  92  96  96  96  94  94  94  113 113 113 116 116 116 114 114 114 132 132 132 147 147 147 160 160 160 181 181 181 176 176 176 182 182 182 178 178 178 183 183 183 178 178 178 148 148 148 92  92  92  61  61  61  49  49  49  39  39  39  31  31  31  19  19  19  8   8   8   4   4   4   2   2   2   
3   3   3   6   6   6   13  13  13  26  26  26  36  36  36  46  46  46  69  69  69  97  97  97  110 110 110 126 126 126 132 132 132 123 123 123 109 109 109 96  96  96  89  89  89  90  90  90  95  95  95  96  96  96  105 105 105 103 103 103 106 106 106 116 116 116 123 123 123 143 143 143 157 157 157 160 160 160 169 169 169 160 160 160 161 161 161 159 159 159 141 141 141 102 102 102 70  70  70  54  54  54  41  41  41  32  32  32  18  18  18  8   8   8   4   4   4   3   3   3   
3   3   3   3   3   3   6   6   6   16  16  16  28  28  28  39  39  39  56  56  56  77  77  77  86  86  86  108 108 108 120 120 120 112 112 112 101 101 101 93  93  93  89  89  89  90  90  90  97  97  97  105 105 105 104 104 104 95  95  95  102 102 102 115 115 115 124 124 124 137 137 137 130 130 130 126 126 126 123 123 123 119 119 119 125 125 125 129 129 129 121 121 121 104 104 104 65  65  65  47  47  47  32  32  32  24  24  24  13  13  13  5   5   5   3   3   3   3   3   3   
1   1   1   2   2   2   3   3   3   9   9   9   19  19  19  28  28  28  39  39  39  52  52  52  66  66  66  90  90  90  107 107 107 108 108 108 103 103 103 98  98  98  97  97  97  99  99  99  112 112 112 112 112 112 99  99  99  88  88  88  90  90  90  111 111 111 136 136 136 142 142 142 146 146 146 141 141 141 122 122 122 114 114 114 118 118 118 118 118 118 98  98  98  80  80  80  53  53  53  33  33  33  19  19  19  14  14  14  8   8   8   3   3   3   3   3   3   3   3   3   
0   0   0   4   4   4   5   5   5   6   6   6   10  10  10  14  14  14  20  20  20  30  30  30  55  55  55  80  80  80  104 104 104 115 115 115 117 117 117 112 112 112 110 110 110 113 113 113 108 108 108 102 102 102 96  96  96  99  99  99  96  96  96  110 110 110 138 138 138 134 134 134 146 146 146 158 158 158 139 139 139 122 122 122 118 118 118 119 119 119 91  91  91  70  70  70  43  43  43  23  23  23  9   9   9   8   8   8   5   5   5   3   3   3   3   3   3   4   4   4   
1   1   1   4   4   4   3   3   3   3   3   3   8   8   8   15  15  15  27  27  27  39  39  39  58  58  58  76  76  76  105 105 105 126 126 126 126 126 126 130 130 130 116 116 116 120 120 120 119 119 119 114 114 114 98  98  98  94  94  94  108 108 108 119 119 119 129 129 129 146 146 146 149 149 149 148 148 148 140 140 140 137 137 137 134 134 134 132 132 132 95  95  95  68  68  68  37  37  37  25  25  25  13  13  13  8   8   8   6   6   6   3   3   3   3   3   3   4   4   4   
2   2   2   4   4   4   2   2   2   3   3   3   13  13  13  23  23  23  32  32  32  41  41  41  49  49  49  68  68  68  89  89  89  101 101 101 108 108 108 127 127 127 120 120 120 118 118 118 119 119 119 109 109 109 96  96  96  96  96  96  107 107 107 112 112 112 120 120 120 135 135 135 132 132 132 133 133 133 119 119 119 115 115 115 113 113 113 119 119 119 106 106 106 73  73  73  46  46  46  32  32  32  16  16  16  6   6   6   3   3   3   2   2   2   3   3   3   3   3   3   
3   3   3   4   4   4   1   1   1   3   3   3   17  17  17  30  30  30  38  38  38  43  43  43  44  44  44  51  51  51  66  66  66  83  83  83  91  91  91  104 104 104 109 109 109 122 122 122 114 114 114 99  99  99  89  89  89  91  91  91  94  94  94  95  95  95  102 102 102 114 114 114 123 123 123 127 127 127 107 107 107 94  94  94  93  93  93  99  99  99  105 105 105 66  66  66  48  48  48  36  36  36  18  18  18  5   5   5   2   2   2   3   3   3   4   4   4   2   2   2   
2   2   2   4   4   4   2   2   2   3   3   3   17  17  17  31  31  31  37  37  37  40  40  40  41  41  41  45  45  45  59  59  59  74  74  74  77  77  77  79  79  79  93  93  93  114 114 114 110 110 110 99  99  99  91  91  91  89  89  89  85  85  85  86  86  86  94  94  94  101 101 101 119 119 119 124 124 124 105 105 105 83  83  83  85  85  85  83  83  83  84  84  84  54  54  54  40  40  40  33  33  33  21  21  21  8   8   8   3   3   3   5   5   5   4   4   4   1   1   1   
1   1   1   5   5   5   3   3   3   3   3   3   13  13  13  23  23  23  30  30  30  34  34  34  37  37  37  52  52  52  64  64  64  67  67  67  67  67  67  71  71  71  83  83  83  91  91  91  97  97  97  97  97  97  96  96  96  90  90  90  82  82  82  83  83  83  89  89  89  91  91  91  106 106 106 110 110 110 97  97  97  73  73  73  81  81  81  75  75  75  62  62  62  51  51  51  34  34  34  31  31  31  22  22  22  10  10  10  4   4   4   4   4   4   4   4   4   2   2   2   
1   1   1   4   4   4   3   3   3   3   3   3   8   8   8   13  13  13  19  19  19  27  27  27  39  39  39  49  49  49  58  58  58  63  63  63  67  67  67  62  62  62  70  70  70  70  70  70  80  80  80  90  90  90  95  95  95  90  90  90  84  84  84  82  82  82  81  81  81  78  78  78  90  90  90  91  91  91  80  80  80  62  62  62  69  69  69  66  66  66  49  49  49  48  48  48  32  32  32  28  28  28  20  20  20  9   9   9   3   3   3   2   2   2   3   3   3   3   3   3   
2   2   2   3   3   3   2   2   2   3   3   3   5   5   5   5   5   5   10  10  10  21  21  21  35  35  35  39  39  39  47  47  47  55  55  55  60  60  60  47  47  47  56  56  56  57  57  57  66  66  66  80  80  80  85  85  85  83  83  83  82  82  82  74  74  74  64  64  64  62  62  62  72  72  72  70  70  70  58  58  58  52  52  52  48  48  48  49  49  49  44  44  44  34  34  34  27  27  27  20  20  20  11  11  11  6   6   6   3   3   3   2   2   2   2   2   2   3   3   3   
3   3   3   2   2   2   1   1   1   3   3   3   4   4   4   2   2   2   6   6   6   18  18  18  20  20  20  37  37  37  46  46  46  42  42  42  43  43  43  38  38  38  51  51  51  45  45  45  51  51  51  62  62  62  64  64  64  64  64  64  66  66  66  53  53  53  38  38  38  39  39  39  55  55  55  52  52  52  38  38  38  44  44  44  28  28  28  34  34  34  41  41  41  16  16  16  19  19  19  10  10  10  3   3   3   3   3   3   5   5   5   4   4   4   2   2   2   2   2   2   
2   2   2   2   2   2   3   3   3   3   3   3   3   3   3   4   4   4   4   4   4   4   4   4   16  16  16  21  21  21  28  28  28  33  33  33  35  35  35  34  34  34  34  34  34  34  34  34  35  35  35  35  35  35  47  47  47  62  62  62  57  57  57  38  38  38  31  31  31  39  39  39  45  45  45  43  43  43  36  36  36  28  28  28  24  24  24  25  25  25  23  23  23  18  18  18  5   5   5   4   4   4   4   4   4   3   3   3   2   2   2   2   2   2   2   2   2   2   2   2   
2   2   2   2   2   2   3   3   3   3   3   3   3   3   3   3   3   3   4   4   4   4   4   4   6   6   6   10  10  10  16  16  16  21  21  21  25  25  25  28  28  28  31  31  31  34  34  34  30  30  30  34  34  34  44  44  44  51  51  51  46  46  46  33  33  33  26  26  26  27  27  27  34  34  34  34  34  34  28  28  28  19  19  19  13  13  13  13  13  13  11  11  11  8   8   8   4   4   4   4   4   4   3   3   3   3   3   3   3   3   3   3   3   3   3   3   3   3   3   3   
2   2   2   2   2   2   3   3   3   3   3   3   3   3   3   3   3   3   3   3   3   4   4   4   2   2   2   4   4   4   7   7   7   10  10  10  14  14  14  20  20  20  26  26  26  30  30  30  24  24  24  31  31  31  37  37  37  38  38  38  34  34  34  29  29  29  22  22  22  18  18  18  23  23  23  24  24  24  20  20  20  12  12  12  6   6   6   4   4   4   4   4   4   3   3   3   3   3   3   3   3   3   3   3   3   3   3   3   3   3   3   3   3   3   3   3   3   3   3   3   
2   2   2   2   2   2   3   3   3   3   3   3   3   3   3   3   3   3   3   3   3   3   3   3   4   4   4   4   4   4   5   5   5   5   5   5   7   7   7   11  11  11  15  15  15  19  19  19  16  16  16  21  21  21  25  25  25  25  25  25  24  24  24  23  23  23  18  18  18  12  12  12  14  14  14  15  15  15  12  12  12  7   7   7   4   4   4   4   4   4   5   5   5   4   4   4   3   3   3   3   3   3   3   3   3   2   2   2   2   2   2   3   3   3   3   3   3   3   3   3   
2   2   2   2   2   2   3   3   3   3   3   3   3   3   3   3   3   3   3   3   3   3   3   3   3   3   3   3   3   3   3   3   3   3   3   3   3   3   3   3   3   3   5   5   5   5   5   5   7   7   7   8   8   8   10  10  10  12  12  12  13  13  13  12  12  12  9   9   9   7   7   7   7   7   7   6   6   6   4   4   4   3   3   3   3   3   3   5   5   5   4   4   4   3   3   3   4   4   4   3   3   3   3   3   3   2   2   2   2   2   2   2   2   2   2   2   2   2   2   2   
2   2   2   2   2   2   3   3   3   3   3   3   3   3   3   3   3   3   3   3   3   3   3   3   1   1   1   2   2   2   3   3   3   3   3   3   3   3   3   2   2   2   2   2   2   1   1   1   4   4   4   2   2   2   2   2   2   5   5   5   6   6   6   4   4   4   3   3   3   4   4   4   4   4   4   3   3   3   1   1   1   1   1   1   3   3   3   4   4   4   3   3   3   2   2   2   4   4   4   3   3   3   3   3   3   2   2   2   2   2   2   2   2   2   2   2   2   2   2   2   
3   3   3   3   3   3   2   2   2   2   2   2   2   2   2   2   2   2   2   2   2   2   2   2   2   2   2   2   2   2   3   3   3   4   4   4   4   4   4   4   4   4   3   3   3   2   2   2   4   4   4   3   3   3   3   3   3   3   3   3   3   3   3   3   3   3   3   3   3   3   3   3   3   3   3   3   3   3   2   2   2   2   2   2   3   3   3   2   2   2   2   2   2   2   2   2   3   3   3   3   3   3   2   2   2   2   2   2   2   2   2   2   2   2   3   3   3   3   3   3   
3   3   3   3   3   3   2   2   2   2   2   2   2   2   2   2   2   2   2   2   2   2   2   2   3   3   3   3   3   3   2   2   2   2   2   2   3   3   3   3   3   3   2   2   2   2   2   2   2   2   2   5   5   5   4   4   4   1   1   1   1   1   1   3   3   3   4   4   4   3   3   3   1   1   1   2   2   2   3   3   3   3   3   3   2   2   2   1   1   1   1   1   1   3   3   3   2   2   2   2   2   2   2   2   2   2   2   2   2   2   2   3   3   3   3   3   3   3   3   3   
