P3
30 30
255
99 99 99
106 106 106
116 116 116
115 115 115
125 125 125
138 138 138
141 141 141
144 144 144
149 149 149
141 141 141
134 134 134
118 118 118
101 101 101
104 104 104
92 92 92
100 100 100
92 92 92
113 113 113
126 126 126
145 145 145
154 154 154
156 156 156
146 146 146
131 131 131
131 131 131
136 136 136
147 147 147
157 157 157
166 166 166
170 170 170
106 106 106
119 119 119
130 130 130
138 138 138
132 132 132
141 141 141
137 137 137
143 143 143
126 126 126
119 119 119
124 124 124
108 108 108
92 92 92
98 98 98
95 95 95
93 93 93
100 100 100
96 96 96
120 120 120
136 136 136
144 144 144
157 157 157
146 146 146
132 132 132
138 138 138
146 146 146
155 155 155
171 171 171
177 177 177
185 185 185
119 119 119
129 129 129
145 145 145
143 143 143
136 136 136
139 139 139
141 141 141
130 130 130
112 112 112
102 102 102
112 112 112
105 105 105
94 94 94
96 96 96
95 95 95
93 93 93
94 94 94
96 96 96
111 111 111
123 123 123
131 131 131
148 148 148
151 151 151
146 146 146
146 146 146
166 166 166
171 171 171
185 185 185
195 195 195
196 196 196
137 137 137
136 136 136
150 150 150
159 159 159
136 136 136
140 140 140
136 136 136
116 116 116
100 100 100
88 88 88
98 98 98
106 106 106
92 92 92
93 93 93
102 102 102
89 89 89
92 92 92
96 96 96
98 98 98
115 115 115
129 129 129
136 136 136
141 141 141
136 136 136
152 152 152
168 168 168
184 184 184
198 198 198
205 205 205
200 200 200
161 161 161
146 146 146
156 156 156
155 155 155
139 139 139
139 139 139
132 132 132
106 106 106
88 88 88
85 85 85
93 93 93
109 109 109
95 95 95
95 95 95
100 100 100
85 85 85
90 90 90
98 98 98
95 95 95
106 106 106
118 118 118
140 140 140
145 145 145
143 143 143
139 139 139
160 160 160
183 183 183
201 201 201
215 215 215
204 204 204
179 179 179
165 165 165
162 162 162
147 147 147
147 147 147
144 144 144
133 133 133
105 105 105
80 80 80
82 82 82
93 93 93
104 104 104
96 96 96
91 91 91
89 89 89
85 85 85
84 84 84
97 97 97
111 111 111
106 106 106
127 127 127
141 141 141
155 155 155
142 142 142
146 146 146
151 151 151
172 172 172
198 198 198
211 211 211
210 210 210
186 186 186
179 179 179
166 166 166
141 141 141
144 144 144
144 144 144
132 132 132
108 108 108
93 93 93
91 91 91
94 94 94
103 103 103
98 98 98
83 83 83
90 90 90
88 88 88
87 87 87
102 102 102
111 111 111
119 119 119
122 122 122
133 133 133
141 141 141
138 138 138
151 151 151
149 149 149
168 168 168
193 193 193
197 197 197
196 196 196
181 181 181
174 174 174
167 167 167
150 150 150
145 145 145
140 140 140
136 136 136
112 112 112
99 99 99
94 94 94
111 111 111
106 106 106
104 104 104
97 97 97
87 87 87
87 87 87
85 85 85
96 96 96
111 111 111
123 123 123
127 127 127
138 138 138
142 142 142
147 147 147
151 151 151
150 150 150
171 171 171
177 177 177
182 182 182
184 184 184
187 187 187
174 174 174
171 171 171
155 155 155
154 154 154
142 142 142
131 131 131
124 124 124
113 113 113
112 112 112
111 111 111
104 104 104
113 113 113
118 118 118
103 103 103
85 85 85
87 87 87
89 89 89
112 112 112
117 117 117
132 132 132
137 137 137
139 139 139
154 154 154
146 146 146
148 148 148
173 173 173
178 178 178
175 175 175
176 176 176
188 188 188
184 184 184
173 173 173
158 158 158
150 150 150
142 142 142
137 137 137
133 133 133
134 134 134
120 120 120
111 111 111
109 109 109
121 121 121
126 126 126
116 116 116
98 98 98
89 89 89
99 99 99
105 105 105
119 119 119
131 131 131
135 135 135
132 132 132
141 141 141
151 151 151
147 147 147
168 168 168
179 179 179
163 163 163
163 163 163
201 201 201
201 201 201
188 188 188
166 166 166
148 148 148
152 152 152
148 148 148
151 151 151
139 139 139
123 123 123
109 109 109
120 120 120
128 128 128
129 129 129
121 121 121
105 105 105
92 92 92
99 99 99
107 107 107
110 110 110
134 134 134
135 135 135
125 125 125
133 133 133
142 142 142
155 155 155
178 178 178
181 181 181
160 160 160
139 139 139
205 205 205
207 207 207
203 203 203
168 168 168
154 154 154
155 155 155
141 141 141
145 145 145
142 142 142
130 130 130
126 126 126
128 128 128
129 129 129
126 126 126
109 109 109
98 98 98
96 96 96
97 97 97
107 107 107
113 113 113
129 129 129
129 129 129
130 130 130
138 138 138
144 144 144
170 170 170
188 188 188
178 178 178
157 157 157
134 134 134
207 207 207
215 215 215
204 204 204
163 163 163
158 158 158
154 154 154
151 151 151
152 152 152
156 156 156
148 148 148
142 142 142
130 130 130
119 119 119
118 118 118
105 105 105
96 96 96
98 98 98
103 103 103
103 103 103
120 120 120
135 135 135
134 134 134
141 141 141
148 148 148
148 148 148
174 174 174
191 191 191
180 180 180
152 152 152
143 143 143
214 214 214
208 208 208
193 193 193
179 179 179
168 168 168
157 157 157
163 163 163
165 165 165
164 164 164
163 163 163
154 154 154
135 135 135
124 124 124
120 120 120
108 108 108
112 112 112
97 97 97
99 99 99
102 102 102
120 120 120
133 133 133
139 139 139
141 141 141
149 149 149
159 159 159
179 179 179
178 178 178
167 167 167
149 149 149
145 145 145
216 216 216
211 211 211
197 197 197
184 184 184
173 173 173
161 161 161
159 159 159
166 166 166
175 175 175
167 167 167
164 164 164
153 153 153
136 136 136
136 136 136
131 131 131
117 117 117
107 107 107
104 104 104
104 104 104
118 118 118
130 130 130
132 132 132
137 137 137
136 136 136
156 156 156
174 174 174
169 169 169
148 148 148
135 135 135
135 135 135
208 208 208
208 208 208
182 182 182
172 172 172
166 166 166
156 156 156
164 164 164
174 174 174
182 182 182
172 172 172
170 170 170
174 174 174
152 152 152
156 156 156
146 146 146
128 128 128
123 123 123
120 120 120
116 116 116
116 116 116
122 122 122
120 120 120
116 116 116
137 137 137
156 156 156
165 165 165
151 151 151
137 137 137
127 127 127
126 126 126
201 201 201
187 187 187
177 177 177
163 163 163
155 155 155
144 144 144
150 150 150
170 170 170
177 177 177
173 173 173
173 173 173
178 178 178
169 169 169
162 162 162
149 149 149
133 133 133
129 129 129
127 127 127
119 119 119
106 106 106
103 103 103
99 99 99
108 108 108
127 127 127
150 150 150
152 152 152
146 146 146
138 138 138
112 112 112
110 110 110
179 179 179
167 167 167
159 159 159
154 154 154
139 139 139
133 133 133
144 144 144
158 158 158
173 173 173
161 161 161
163 163 163
166 166 166
161 161 161
156 156 156
146 146 146
138 138 138
130 130 130
124 124 124
114 114 114
103 103 103
105 105 105
94 94 94
108 108 108
120 120 120
136 136 136
146 146 146
139 139 139
136 136 136
112 112 112
103 103 103
143 143 143
139 139 139
131 131 131
134 134 134
132 132 132
135 135 135
150 150 150
154 154 154
165 165 165
157 157 157
142 142 142
165 165 165
169 169 169
160 160 160
146 146 146
140 140 140
131 131 131
130 130 130
123 123 123
110 110 110
95 95 95
97 97 97
102 102 102
113 113 113
128 128 128
144 144 144
136 136 136
130 130 130
109 109 109
95 95 95
121 121 121
118 118 118
114 114 114
118 118 118
117 117 117
128 128 128
138 138 138
159 159 159
161 161 161
157 157 157
149 149 149
157 157 157
168 168 168
164 164 164
149 149 149
148 148 148
137 137 137
137 137 137
121 121 121
116 116 116
103 103 103
102 102 102
95 95 95
107 107 107
121 121 121
133 133 133
112 112 112
108 108 108
107 107 107
94 94 94
101 101 101
106 106 106
116 116 116
115 115 115
110 110 110
126 126 126
135 135 135
149 149 149
154 154 154
161 161 161
158 158 158
161 161 161
164 164 164
171 171 171
159 159 159
156 156 156
146 146 146
138 138 138
133 133 133
123 123 123
114 114 114
114 114 114
107 107 107
102 102 102
107 107 107
107 107 107
89 89 89
92 92 92
102 102 102
94 94 94
112 112 112
109 109 109
115 115 115
115 115 115
127 127 127
130 130 130
140 140 140
147 147 147
153 153 153
165 165 165
172 172 172
178 178 178
170 170 170
173 173 173
167 167 167
153 153 153
136 136 136
142 142 142
145 145 145
135 135 135
126 126 126
123 123 123
112 112 112
105 105 105
106 106 106
94 94 94
86 86 86
81 81 81
95 95 95
90 90 90
107 107 107
117 117 117
116 116 116
115 115 115
136 136 136
147 147 147
142 142 142
154 154 154
160 160 160
171 171 171
174 174 174
172 172 172
171 171 171
174 174 174
163 163 163
150 150 150
142 142 142
156 156 156
153 153 153
150 150 150
145 145 145
128 128 128
120 120 120
116 116 116
105 105 105
91 91 91
81 81 81
70 70 70
85 85 85
89 89 89
103 103 103
112 112 112
112 112 112
114 114 114
140 140 140
153 153 153
153 153 153
170 170 170
172 172 172
176 176 176
180 180 180
171 171 171
161 161 161
159 159 159
154 154 154
150 150 150
154 154 154
165 165 165
158 158 158
153 153 153
154 154 154
139 139 139
132 132 132
126 126 126
112 112 112
88 88 88
82 82 82
78 78 78
71 71 71
64 64 64
94 94 94
100 100 100
105 105 105
110 110 110
135 135 135
145 145 145
152 152 152
162 162 162
177 177 177
183 183 183
182 182 182
178 178 178
167 167 167
149 149 149
152 152 152
163 163 163
179 179 179
186 186 186
177 177 177
170 170 170
162 162 162
157 157 157
150 150 150
134 134 134
116 116 116
105 105 105
86 86 86
88 88 88
67 67 67
52 52 52
89 89 89
89 89 89
103 103 103
112 112 112
133 133 133
136 136 136
147 147 147
151 151 151
165 165 165
171 171 171
181 181 181
180 180 180
182 182 182
162 162 162
161 161 161
175 175 175
192 192 192
199 199 199
201 201 201
187 187 187
174 174 174
175 175 175
164 164 164
153 153 153
125 125 125
107 107 107
88 88 88
76 76 76
63 63 63
49 49 49
88 88 88
84 84 84
103 103 103
109 109 109
131 131 131
139 139 139
147 147 147
147 147 147
156 156 156
162 162 162
166 166 166
179 179 179
186 186 186
171 171 171
173 173 173
187 187 187
208 208 208
210 210 210
204 204 204
203 203 203
184 184 184
181 181 181
182 182 182
157 157 157
135 135 135
114 114 114
100 100 100
81 81 81
65 65 65
52 52 52
83 83 83
91 91 91
100 100 100
99 99 99
127 127 127
140 140 140
146 146 146
145 145 145
149 149 149
150 150 150
145 145 145
165 165 165
173 173 173
179 179 179
188 188 188
205 205 205
217 217 217
214 214 214
217 217 217
213 213 213
202 202 202
196 196 196
187 187 187
167 167 167
154 154 154
130 130 130
123 123 123
111 111 111
83 83 83
65 65 65
93 93 93
102 102 102
103 103 103
110 110 110
136 136 136
152 152 152
156 156 156
151 151 151
140 140 140
146 146 146
148 148 148
161 161 161
165 165 165
175 175 175
180 180 180
201 201 201
216 216 216
228 228 228
236 236 236
223 223 223
211 211 211
196 196 196
187 187 187
183 183 183
175 175 175
143 143 143
138 138 138
125 125 125
102 102 102
87 87 87
92 92 92
104 104 104
114 114 114
126 126 126
143 143 143
153 153 153
145 145 145
143 143 143
130 130 130
136 136 136
153 153 153
164 164 164
172 172 172
178 178 178
179 179 179
187 187 187
206 206 206
224 224 224
244 244 244
228 228 228
218 218 218
204 204 204
191 191 191
183 183 183
183 183 183
165 165 165
149 149 149
129 129 129
117 117 117
100 100 100
