P3
20 20
255
56  56  56  44  44  44  89  89  88  86  86  86  92  92  92  125 125 125 143 143 143 162 162 162 178 178 178 186 186 186 172 172 172 180 180 180 215 215 215 225 225 225 225 225 225 197 197 197 179 179 179 151 151 151 134 134 134 152 152 152 
65  65  65  52  52  52  51  51  51  57  57  56  58  59  58  81  81  81  116 116 116 137 137 137 161 161 161 176 176 176 197 197 197 209 209 209 224 224 224 209 209 209 213 213 213 194 194 194 173 173 173 177 177 177 166 166 166 165 165 165 
79  79  79  81  81  81  67  67  67  79  79  79  89  89  89  73  73  73  81  81  80  114 114 114 129 129 129 154 154 154 179 179 179 202 202 202 220 220 220 218 218 218 219 219 219 183 183 183 154 154 154 159 159 159 185 185 185 185 185 185 
99  99  99  97  97  97  94  94  94  100 100 100 117 117 117 103 103 103 82  82  82  79  79  79  89  89  89  127 127 127 155 155 155 187 187 187 198 198 198 191 191 191 186 186 186 172 172 172 154 154 154 161 161 161 168 168 168 167 167 167 
94  94  94  75  75  75  77  77  77  97  97  97  116 116 116 123 123 123 108 108 108 96  96  96  87  87  87  97  97  97  139 139 139 165 165 165 177 177 177 164 164 164 151 151 151 142 142 142 160 160 160 192 192 192 164 164 164 172 172 172 
81  81  80  56  56  56  59  59  59  71  71  71  97  97  97  124 124 124 132 132 132 125 125 125 115 115 115 92  92  92  124 124 124 135 135 135 158 158 158 150 150 150 129 129 129 136 136 136 178 178 178 210 210 210 183 183 183 166 166 166 
62  62  62  44  45  44  53  53  53  74  74  74  94  94  94  109 109 109 133 133 133 140 140 140 126 126 126 102 102 102 96  96  96  107 107 107 113 113 113 120 120 120 140 140 140 170 170 170 186 186 186 214 214 214 195 195 195 181 181 181 
44  44  44  46  46  46  57  57  57  69  69  69  90  90  90  97  97  97  95  95  95  111 111 111 136 136 136 134 134 134 123 123 123 135 135 135 147 147 147 153 153 153 161 161 161 197 197 197 221 221 221 237 237 237 218 218 218 187 187 187 
25  25  25  34  34  34  47  47  47  66  66  66  71  71  71  64  65  64  69  69  69  97  97  97  123 123 123 137 137 137 148 148 148 151 151 151 172 172 172 181 181 181 168 168 168 199 199 199 217 217 217 238 238 238 231 231 231 209 209 209 
21  21  21  21  21  21  27  27  27  43  44  44  42  42  42  38  39  38  61  61  61  71  71  71  88  88  87  113 113 113 115 115 115 150 150 150 170 170 170 184 184 184 186 186 186 189 189 189 212 212 212 231 231 231 241 241 241 228 228 228 
15  15  15  14  14  14  15  15  15  17  17  17  14  14  14  19  19  19  41  41  41  57  57  57  68  68  68  80  80  80  111 111 111 148 148 148 147 147 147 154 154 154 189 189 189 200 200 200 211 211 211 219 219 219 233 233 233 242 242 242 
12  12  12  12  12  12  7   7   7   4   4   4   4   4   4   16  16  16  21  21  21  36  36  36  42  43  42  76  76  76  99  99  99  115 115 115 110 110 110 143 143 143 176 176 176 190 190 190 187 187 187 198 198 198 220 220 220 226 226 226 
6   6   6   9   9   9   6   6   6   10  10  10  31  31  31  31  31  31  18  18  18  21  21  21  22  22  22  44  45  44  65  65  65  79  79  79  103 102 102 126 126 126 145 145 145 156 156 156 163 163 163 190 190 190 187 187 187 186 186 186 
3   3   3   3   3   3   3   3   3   12  12  12  38  38  38  55  55  55  54  55  54  46  47  46  21  21  21  23  23  23  48  49  48  63  63  63  64  64  64  81  81  81  116 116 116 111 111 111 135 135 135 162 162 162 150 150 150 148 148 148 
3   3   3   3   3   3   3   3   3   3   3   3   18  18  18  47  47  47  75  75  74  73  73  73  54  54  54  41  41  41  22  22  22  21  21  21  34  35  34  55  56  55  72  72  72  95  95  95  90  90  90  129 129 129 115 115 115 139 139 139 
3   3   3   3   3   3   3   3   3   3   3   3   4   4   4   30  30  30  61  61  61  59  59  59  73  73  73  68  68  68  53  54  53  50  50  50  30  30  30  31  31  31  30  30  30  53  53  53  76  76  76  103 103 103 100 100 100 134 134 134 
3   3   3   3   3   3   3   3   3   3   3   3   3   3   3   12  12  12  37  37  37  64  64  64  84  84  84  90  90  90  89  89  89  66  66  66  57  58  57  62  62  62  41  41  41  35  35  35  68  68  68  81  81  81  77  77  77  107 107 107 
3   3   3   3   3   3   3   3   3   3   3   3   3   3   3   3   3   3   22  22  22  45  45  45  54  54  54  76  76  76  95  95  95  80  80  80  83  83  83  95  95  95  77  77  77  48  48  48  35  35  35  39  39  39  71  71  71  113 113 113 
3   3   3   3   3   3   3   3   3   3   3   3   3   3   3   3   3   3   13  13  13  48  48  48  55  55  55  73  73  73  98  98  98  109 109 109 109 109 109 111 111 111 104 104 104 87  87  87  66  66  66  50  50  50  38  38  38  64  64  64  
3   3   3   3   3   3   3   3   3   3   3   3   3   3   3   3   3   3   3   3   3   29  29  29  64  64  64  80  80  80  100 100 100 112 112 112 94  94  94  87  87  87  91  91  91  107 107 107 98  98  98  84  84  84  62  62  62  36  36  36  
